<svg  height="200" viewBox="0 0 266 184" fill="none" xmlns="http://www.w3.org/2000/svg">
<circle cx="139.524" cy="50.4416" r="50" transform="rotate(-40 139.524 50.4416)" fill="#FFA620"/>
<path d="M225.245 96.4866C225.79 96.3967 226.159 95.882 226.069 95.3371C225.979 94.7922 225.464 94.4234 224.919 94.5134L225.245 96.4866ZM224.919 94.5134C215.907 96.0016 202.345 96.7613 190.935 94.2484C185.231 92.9923 180.144 90.9354 176.426 87.8153C172.739 84.7205 170.366 80.5552 170.081 74.9492L168.083 75.0508C168.398 81.2448 171.054 85.917 175.141 89.3472C179.197 92.7521 184.629 94.9077 190.504 96.2016C202.252 98.7887 216.09 97.9984 225.245 96.4866L224.919 94.5134Z" fill="black" fill-opacity="0.6"/>
<path fill-rule="evenodd" clip-rule="evenodd" d="M169.082 82.06C150.187 95.7243 123.921 92.4716 108.794 73.9642C94.0784 55.9616 95.0402 29.8107 110.188 13C109.15 13.7513 108.133 14.5537 107.142 15.4075C88.1222 31.7908 85.6413 60.9003 101.601 80.4252C117.56 99.9502 145.916 102.497 164.936 86.1136C166.419 84.8362 167.801 83.4815 169.082 82.06Z" fill="#FFC061"/>
<path d="M65.5924 121.087C65.0881 121.312 64.8617 121.903 65.0868 122.408C65.3119 122.912 65.9032 123.138 66.4076 122.913L65.5924 121.087ZM113.001 73.9682C112.732 82.4281 103.111 104.342 65.5924 121.087L66.4076 122.913C104.318 105.993 114.697 83.5445 114.999 74.0318L113.001 73.9682Z" fill="black" fill-opacity="0.6"/>
<path d="M119.082 24C124.065 33.2142 140.242 46.626 165.082 26.5595" stroke="black" stroke-opacity="0.6" stroke-width="2" stroke-linecap="round"/>
<path d="M144.082 19C146.39 21.1645 151.62 24.2813 154.082 19.4329" stroke="black" stroke-opacity="0.6" stroke-width="2" stroke-linecap="round"/>
<path d="M138.082 19C136.005 21.1645 131.297 24.2813 129.082 19.4329" stroke="black" stroke-opacity="0.6" stroke-width="2" stroke-linecap="round"/>
<g clip-path="url(#clip0_0_1)">
<path d="M73.5636 77.8626L63.0986 81.7756L62.8277 81.0512C62.4687 80.0911 61.3993 79.6038 60.4392 79.9627L58.3457 80.7455C57.2309 78.4566 53.7492 77.6203 50.3506 78.891C46.952 80.1618 44.8731 83.0773 45.5335 85.5361L43.4401 86.3188C42.48 86.6778 41.9926 87.7473 42.3516 88.7074L42.6225 89.4318L30.1412 94.0986C28.5097 94.7086 27.6814 96.5258 28.2915 98.1575L53.5353 165.671C54.1453 167.302 55.9627 168.13 57.5942 167.52L101.017 151.284C102.648 150.674 103.476 148.857 102.866 147.225L77.6225 79.7122C77.0124 78.0806 75.1953 77.2525 73.5636 77.8626ZM51.0368 80.7262C53.1971 79.9184 55.3689 80.3878 55.8875 81.7747L48.064 84.7C47.5454 83.3131 48.8764 81.534 51.0368 80.7262Z" fill="#D4D4D4"/>
<path d="M73.5636 77.8626L63.0985 81.7756L63.716 83.427L73.1874 79.8856L73.7111 81.2862L74.9908 80.8077L100.396 148.753L57.3675 164.842L56.8438 163.442L55.5641 163.92L30.1587 95.9744L43.2399 91.0832L42.6224 89.4318L30.1412 94.0986C28.5097 94.7086 27.6814 96.5258 28.2915 98.1575L53.5352 165.671C54.1453 167.302 55.9627 168.13 57.5942 167.52L101.017 151.284C102.648 150.674 103.476 148.857 102.866 147.225L77.6225 79.7122C77.0124 78.0806 75.1952 77.2525 73.5636 77.8626Z" fill="#FFA620"/>
<path d="M63.716 83.4271L65.1751 87.3293C65.5341 88.2895 65.0467 89.3589 64.0866 89.7179L47.0876 96.0739C46.1274 96.433 45.058 95.9456 44.699 94.9854L43.2399 91.0832L30.1587 95.9744L55.5641 163.92L98.5929 147.831L73.1875 79.8856L63.716 83.4271Z" fill="#F2F2F2"/>
<path d="M71.7861 143.81L66.8873 145.642L66.2011 143.806L69.953 142.404C69.6568 142.17 69.3601 141.933 69.0619 141.691L65.8581 142.889L65.1719 141.054L67.33 140.247C67.0504 140.007 66.769 139.762 66.489 139.515L64.8288 140.136L64.1427 138.301L64.8564 138.034C63.2271 136.513 61.6111 134.87 60.0539 133.107C59.0525 131.973 58.0756 130.789 57.1343 129.555C56.723 129.015 56.32 128.468 55.927 127.915C54.9793 126.581 54.0859 125.215 53.2423 123.827C51.8506 121.537 50.5974 119.194 49.4736 116.869C48.6911 115.251 47.9714 113.641 47.3108 112.063C46.2371 109.499 45.3198 107.02 44.5453 104.731C42.0441 97.3362 41.0305 91.9094 41.0305 91.9094L30.1587 95.9744L55.5641 163.92L86.1273 152.492C86.1273 152.492 79.5635 149.613 71.7861 143.81Z" fill="#DCDCDC"/>
<path d="M51.4632 110.828L42.6739 114.115L39.9292 106.774L48.7184 103.488L51.4632 110.828Z" fill="#FAD296"/>
<path d="M56.1742 122.731L47.385 126.017L44.6403 118.676L53.4295 115.39L56.1742 122.731Z" fill="#FAD296"/>
<path d="M73.8585 93.7703L50.7263 102.42L51.4125 104.255L74.5447 95.6054L73.8585 93.7703Z" fill="#FAD296"/>
<path d="M74.8878 96.523L51.7556 105.172L52.4418 107.007L75.574 98.3581L74.8878 96.523Z" fill="#FAD296"/>
<path d="M75.9171 99.2757L52.7849 107.925L53.4711 109.76L76.6033 101.111L75.9171 99.2757Z" fill="#FAD296"/>
<path d="M78.445 106.037L55.3129 114.686L55.999 116.521L79.1312 107.872L78.445 106.037Z" fill="#FAD296"/>
<path d="M79.4742 108.789L56.342 117.439L57.0282 119.274L80.1604 110.624L79.4742 108.789Z" fill="#FAD296"/>
<path d="M80.5035 111.542L57.3713 120.191L58.0575 122.026L81.1897 113.377L80.5035 111.542Z" fill="#FAD296"/>
<path d="M60.5891 134.538L51.7998 137.825L49.0552 130.484L57.8444 127.198L60.5891 134.538Z" fill="#FAD296"/>
<path d="M82.86 117.844L59.7278 126.493L60.414 128.329L83.5461 119.679L82.86 117.844Z" fill="#FAD296"/>
<path d="M83.8893 120.597L60.7571 129.246L61.4433 131.081L84.5754 122.432L83.8893 120.597Z" fill="#FAD296"/>
<path d="M84.9184 123.35L61.7863 131.999L62.4724 133.834L85.6046 125.185L84.9184 123.35Z" fill="#FAD296"/>
<path d="M87.961 131.487L64.8288 140.136L64.1427 138.301L87.2749 129.652L87.961 131.487Z" fill="#FAD296"/>
<path d="M88.9903 134.24L65.8582 142.889L65.172 141.054L88.3042 132.404L88.9903 134.24Z" fill="#FAD296"/>
<path d="M90.0195 136.992L66.8873 145.642L66.2012 143.806L89.3334 135.157L90.0195 136.992Z" fill="#FAD296"/>
<path d="M62.1348 139.369L53.3456 142.656L56.0902 149.996L64.8795 146.71L62.1348 139.369Z" fill="#EA580C"/>
<path d="M64.8565 138.034L64.1427 138.301L64.8289 140.136L66.489 139.515C65.9442 139.035 65.3999 138.542 64.8565 138.034Z" fill="#EA580C"/>
<path d="M67.3301 140.247L65.172 141.054L65.8581 142.889L69.062 141.691C68.4869 141.225 67.9094 140.744 67.3301 140.247Z" fill="#EA580C"/>
<path d="M69.953 142.404L66.2012 143.806L66.8873 145.642L71.7862 143.81C71.1815 143.359 70.57 142.89 69.953 142.404Z" fill="#EA580C"/>
<path d="M64.7004 88.4148L47.7013 94.7709C46.7412 95.1299 45.6717 94.6426 45.3127 93.6824L42.9653 87.4043C42.8758 87.1651 42.8391 86.9191 42.8489 86.679C42.2992 87.1743 42.0768 87.9723 42.3516 88.7074L44.699 94.9854C45.058 95.9456 46.1275 96.433 47.0876 96.0739L64.0867 89.7179C64.8076 89.4483 65.2618 88.7783 65.2915 88.0547C65.1233 88.2063 64.9254 88.3306 64.7004 88.4148Z" fill="#C4C4C4"/>
<path d="M48.8247 91.3718C49.6649 91.0576 50.0913 90.1219 49.7771 89.2818C49.463 88.4416 48.5273 88.0152 47.6871 88.3293C46.847 88.6435 46.4206 89.5792 46.7347 90.4194C47.0488 91.2595 47.9846 91.6859 48.8247 91.3718Z" fill="#AAAAA9"/>
<path d="M60.9328 85.1106C61.247 85.9507 60.8205 86.8865 59.9804 87.2006C59.1402 87.5147 58.2045 87.0883 57.8903 86.2482C57.5762 85.408 58.0026 84.4723 58.8428 84.1581C59.683 83.844 60.6187 84.2704 60.9328 85.1106Z" fill="#AAAAA9"/>
<path d="M49.0448 90.7459C48.2047 91.06 47.2689 90.6336 46.9548 89.7935C46.8582 89.5352 46.8322 89.2679 46.8662 89.0124C46.6192 89.4223 46.5541 89.9363 46.7347 90.4193C47.0489 91.2595 47.9846 91.6859 48.8247 91.3717C49.4066 91.1542 49.7895 90.6384 49.8659 90.0628C49.6833 90.3659 49.4019 90.6124 49.0448 90.7459Z" fill="#777776"/>
<path d="M60.2005 86.5747C59.3604 86.8889 58.4246 86.4625 58.1105 85.6223C58.0139 85.364 57.9879 85.0968 58.0218 84.8413C57.7749 85.2512 57.7098 85.7652 57.8904 86.2482C58.2045 87.0883 59.1402 87.5148 59.9804 87.2006C60.5622 86.983 60.9451 86.4672 61.0215 85.8916C60.8391 86.1947 60.5576 86.4412 60.2005 86.5747Z" fill="#777776"/>
<path d="M56.377 85.7338L50.8716 87.7923C50.7388 87.8419 50.5895 87.7739 50.5399 87.6411C50.4902 87.5083 50.5583 87.359 50.691 87.3094L56.1964 85.2509C56.3292 85.2012 56.4785 85.2693 56.5281 85.402C56.5778 85.5349 56.5097 85.6841 56.377 85.7338Z" fill="#AAAAA9"/>
<path d="M56.8148 86.9049L51.3095 88.9634C51.1767 89.013 51.0274 88.945 50.9777 88.8122C50.9281 88.6794 50.9961 88.5301 51.1289 88.4805L56.6343 86.422C56.767 86.3723 56.9163 86.4404 56.966 86.5731C57.0156 86.706 56.9476 86.8552 56.8148 86.9049Z" fill="#AAAAA9"/>
<path d="M57.2528 88.076L51.7475 90.1345C51.6147 90.1842 51.4654 90.1161 51.4157 89.9833C51.3661 89.8505 51.4341 89.7013 51.5669 89.6516L57.0722 87.5931C57.205 87.5435 57.3543 87.6115 57.404 87.7443C57.4536 87.8771 57.3856 88.0264 57.2528 88.076Z" fill="#AAAAA9"/>
<path d="M52.877 79.924C51.3412 80.036 49.2932 81.2864 48.5992 82.4304L48.5995 82.4301C49.1408 81.7377 49.99 81.1176 51.0368 80.7261C53.1971 79.9184 55.3689 80.3878 55.8875 81.7747L56.7772 81.4421C55.8339 80.1157 54.4374 79.8103 52.877 79.924Z" fill="#C4C4C4"/>
<path d="M44.5453 104.731L40.0537 106.41L42.7984 113.751L47.3109 112.063C46.2371 109.499 45.3198 107.02 44.5453 104.731Z" fill="#EA580C"/>
<path d="M49.4736 116.869L44.6403 118.676L47.385 126.017L53.2423 123.827C51.8506 121.537 50.5974 119.194 49.4736 116.869Z" fill="#EA580C"/>
<path d="M55.8026 128.279L48.9308 130.848L51.6754 138.189L60.4647 134.902L59.9295 133.471C58.9281 132.337 57.9512 131.153 57.0099 129.919C56.5986 129.38 56.1956 128.832 55.8026 128.279Z" fill="#EA580C"/>
</g>
<mask id="path-43-inside-1_0_1" fill="white">
<path d="M211.377 104.577C211.758 101.284 213.431 98.2772 216.029 96.2179C218.627 94.1586 221.937 93.2157 225.23 93.5967C228.524 93.9777 231.531 95.6513 233.59 98.2493C235.649 100.847 236.592 104.157 236.211 107.45L223.794 106.014L211.377 104.577Z"/>
</mask>
<path d="M211.377 104.577C211.758 101.284 213.431 98.2772 216.029 96.2179C218.627 94.1586 221.937 93.2157 225.23 93.5967C228.524 93.9777 231.531 95.6513 233.59 98.2493C235.649 100.847 236.592 104.157 236.211 107.45L223.794 106.014L211.377 104.577Z" stroke="#FFA620" stroke-width="4" mask="url(#path-43-inside-1_0_1)"/>
<rect x="184.896" y="99.6155" width="80" height="50" rx="2" transform="rotate(6.59872 184.896 99.6155)" fill="#FFA620"/>
<rect x="184.214" y="99.4866" width="81.9342" height="20" rx="2" transform="rotate(6.59872 184.214 99.4866)" fill="#FFBE5B"/>
<rect x="219.285" y="119.059" width="10" height="10" rx="2" transform="rotate(6.59872 219.285 119.059)" fill="#EA580C"/>
<defs>
<clipPath id="clip0_0_1">
<rect width="100" height="100" fill="white" transform="translate(0 90.0227) rotate(-20.5012)"/>
</clipPath>
</defs>
</svg>
