<svg width="255" height="142" viewBox="0 0 255 142" fill="none" xmlns="http://www.w3.org/2000/svg">
<path d="M93.2012 141.32C89.3711 141.3 86.2859 138.175 86.3123 134.345C86.3189 132.987 86.7276 131.655 87.4857 130.522C89.6216 127.344 93.9263 126.494 97.1038 128.63C100.281 130.766 101.132 135.07 98.9958 138.248C97.7037 140.179 95.5217 141.333 93.2012 141.32ZM90.8412 132.802C89.9644 134.108 90.3138 135.881 91.6191 136.758C92.9243 137.635 94.6976 137.285 95.5744 135.98C96.4512 134.675 96.1018 132.908 94.8031 132.031C93.4979 131.154 91.7245 131.504 90.8412 132.809V132.802Z" fill="#2E2E3F"/>
<path d="M42.4145 141.32C38.5909 141.306 35.5058 138.195 35.519 134.371C35.519 133 35.9343 131.662 36.699 130.528C38.8349 127.351 43.1396 126.5 46.3171 128.636C49.4945 130.772 50.3449 135.077 48.209 138.254C46.917 140.186 44.7349 141.339 42.4145 141.326V141.32ZM40.0676 132.802C39.1908 134.108 39.5336 135.881 40.8389 136.758C42.1442 137.635 43.9175 137.292 44.7943 135.987C45.671 134.681 45.3282 132.908 44.023 132.031C42.7177 131.154 40.951 131.497 40.0742 132.802H40.0676Z" fill="#2E2E3F"/>
<path d="M95.5085 110.811H26.7052L0 38.0719H116.215L95.5019 110.811H95.5085ZM29.5596 106.73H92.4167L110.809 42.1393H5.85392L29.5596 106.73Z" fill="#FFA620"/>
<path d="M122.662 110.811H53.852L27.16 38.0719H145.366L122.662 110.811ZM56.7197 106.73H119.577L137.969 42.1393H33.0469L56.7197 106.73Z" fill="#FFA620"/>
<path d="M123.071 110.85H90.4852L105.08 59.3781L117.131 22L150 22.4417L123.077 110.85H123.071ZM95.8777 106.77H120.051L144.542 26.4498L120.117 26.1202L108.963 60.5646L95.8777 106.77Z" fill="#FFA620"/>
<path d="M123.005 131.174H43.2319V127.094H118.924V108.787H123.005V131.174Z" fill="#FFA620"/>
<path d="M96.3062 131.174H31.3528V127.094H92.219V108.787H96.3062V131.174Z" fill="#FFA620"/>
<path d="M109.847 141.32C106.017 141.32 102.918 138.215 102.918 134.391C102.918 130.568 106.023 127.463 109.847 127.463C113.67 127.463 116.775 130.568 116.775 134.391C116.775 138.221 113.67 141.32 109.847 141.32ZM109.847 131.524C108.271 131.524 106.999 132.796 106.999 134.371C106.999 135.947 108.271 137.219 109.847 137.219C111.422 137.219 112.695 135.947 112.695 134.371C112.688 132.802 111.416 131.537 109.847 131.537V131.524Z" fill="#2E2E3F"/>
<path d="M60.3323 141.32C56.5088 141.306 53.4236 138.195 53.4368 134.371C53.4368 133 53.8521 131.662 54.6168 130.528C56.7527 127.351 61.0574 126.5 64.2349 128.636C67.4124 130.772 68.2628 135.077 66.1269 138.254C64.8348 140.186 62.6528 141.339 60.3323 141.326V141.32ZM57.9723 132.802C57.0955 134.108 57.4383 135.881 58.7436 136.758C60.0488 137.635 61.8222 137.292 62.6989 135.987C63.5757 134.681 63.2329 132.908 61.9276 132.031C60.6224 131.161 58.8556 131.504 57.9789 132.809L57.9723 132.802Z" fill="#2E2E3F"/>
<path d="M138.167 52.6539H9.14343V55.7325H138.167V52.6539Z" fill="#FFA620"/>
<path d="M134.792 62.9972H11.899V66.0758H134.792V62.9972Z" fill="#FFA620"/>
<path d="M131.423 73.3405H15.8873V76.419H131.423V73.3405Z" fill="#FFA620"/>
<path d="M128.054 83.6837H19.869V86.7622H128.054V83.6837Z" fill="#FFA620"/>
<path d="M124.679 94.0269H23.8508V97.1055H124.679V94.0269Z" fill="#FFA620"/>
<path d="M17.3219 39.2698L14.4297 40.3247L39.2494 108.368L42.1416 107.313L17.3219 39.2698Z" fill="#FFA620"/>
<path d="M53.2161 39.3534L50.2629 40.2231L70.0301 107.343L72.9833 106.473L53.2161 39.3534Z" fill="#FFA620"/>
<path d="M83.3926 38.8215L80.3158 38.9247L82.6119 107.419L85.6888 107.316L83.3926 38.8215Z" fill="#FFA620"/>
<path d="M118.759 40.7101L98.0856 107.826L101.028 108.732L121.701 41.6164L118.759 40.7101Z" fill="#FFA620"/>
<path d="M146.067 30.0022C145.515 29.9655 145.039 30.3824 145.002 30.9335C144.965 31.4845 145.382 31.961 145.933 31.9978L146.067 30.0022ZM179.253 51.3415C176.295 47.9611 171.116 42.8591 165.153 38.4931C159.222 34.1505 152.362 30.4219 146.067 30.0022L145.933 31.9978C151.638 32.3781 158.111 35.8161 163.972 40.1069C169.8 44.3742 174.872 49.3723 177.747 52.6585L179.253 51.3415Z" fill="black" fill-opacity="0.6"/>
<circle cx="204.442" cy="50.4417" r="50" transform="rotate(-40 204.442 50.4417)" fill="#FFA620"/>
<path fill-rule="evenodd" clip-rule="evenodd" d="M234 82.0599C215.105 95.7242 188.839 92.4715 173.711 73.9641C158.996 55.9614 159.958 29.8105 175.106 12.9999C174.068 13.7511 173.051 14.5535 172.06 15.4073C153.04 31.7907 150.559 60.9002 166.519 80.4251C182.478 99.9501 210.834 102.497 229.854 86.1134C231.337 84.8361 232.719 83.4814 234 82.0599Z" fill="#FFC061"/>
<path d="M137.207 47.7929C136.817 47.4024 136.183 47.4024 135.793 47.7929C135.402 48.1834 135.402 48.8166 135.793 49.2071L137.207 47.7929ZM193.972 68.5004C188.157 68.6642 178.286 67.827 167.69 64.7643C157.094 61.7014 145.849 56.4345 137.207 47.7929L135.793 49.2071C144.751 58.1655 156.339 63.5652 167.135 66.6857C177.931 69.8063 188.009 70.6692 194.028 70.4996L193.972 68.5004Z" fill="black" fill-opacity="0.6"/>
<path d="M186 23C190.225 32.923 203.94 47.3664 225 25.7564" stroke="black" stroke-opacity="0.6" stroke-width="2" stroke-linecap="round"/>
<path d="M209 18.9999C211.308 21.1644 216.538 24.2812 219 19.4328" stroke="black" stroke-opacity="0.6" stroke-width="2" stroke-linecap="round"/>
<path d="M203 18.9999C200.923 21.1644 196.215 24.2812 194 19.4328" stroke="black" stroke-opacity="0.6" stroke-width="2" stroke-linecap="round"/>
<path d="M162.341 128.99C162.623 129.465 162.466 130.079 161.991 130.36C161.516 130.642 160.902 130.485 160.621 130.01L162.341 128.99ZM179.362 92.96C178.331 93.2608 176.965 93.5686 175.474 93.925C173.964 94.2858 172.284 94.7057 170.553 95.2426C167.079 96.3207 163.483 97.8474 160.737 100.23C158.024 102.584 156.123 105.785 156.006 110.326C155.887 114.916 157.59 120.973 162.341 128.99L160.621 130.01C155.771 121.827 153.874 115.389 154.006 110.274C154.14 105.11 156.339 101.399 159.426 98.7197C162.48 96.0693 166.385 94.4418 169.961 93.3324C171.755 92.7755 173.487 92.3434 175.009 91.9797C176.549 91.6117 177.833 91.3225 178.802 91.04L179.362 92.96Z" fill="black" fill-opacity="0.6"/>
<path d="M213.462 139.99C213.743 140.465 213.586 141.079 213.111 141.36C212.636 141.642 212.023 141.485 211.741 141.01L213.462 139.99ZM212.881 93.96C209.228 95.0254 204.713 98.5107 203.384 105.658C202.048 112.851 203.919 123.887 213.462 139.99L211.741 141.01C202.083 124.713 199.955 113.166 201.418 105.292C202.89 97.3726 207.974 93.3079 212.321 92.04L212.881 93.96Z" fill="black" fill-opacity="0.6"/>
</svg>
