<svg width="500" height="500" viewBox="0 0 2901 2916" fill="none" xmlns="http://www.w3.org/2000/svg">
<path d="M2610.83 617.375C2005.1 -145.45 571.039 -188.087 149.37 416.95C-82.9669 750.322 14.1211 1248.66 62.0251 1494.53C150.18 1947.02 367.559 2238.31 415.026 2300.1C530.202 2450.03 809.963 2814.21 1230.89 2897.46C1950.1 3039.7 2847.52 2315.49 2897.24 1498.41C2925.9 1027.34 2663.2 683.325 2610.83 617.375Z" fill="#F4F7FA"/>
<path d="M2219.78 2477.19C2133.13 2377.85 2020.1 2218.05 1982.5 2003.45C1939.32 1757.04 2035.04 1663.59 2036.54 1380.03C2038.67 975.263 1767.28 797.517 1875.21 628.422C1927.85 545.962 2044.56 496.54 2138.21 517.355C2405.41 576.743 2618.6 1237.58 2397.98 1623.98C2298.2 1798.73 2163.98 1839.78 2114.96 2032.04C2071.64 2201.92 2151.05 2368.27 2219.78 2477.19Z" fill="url(#paint0_linear_231_10)"/>
<mask id="mask0_231_10" style="mask-type:luminance" maskUnits="userSpaceOnUse" x="1849" y="512" width="641" height="1966">
<path d="M2219.78 2477.19C2133.13 2377.85 2020.1 2218.05 1982.5 2003.45C1939.32 1757.04 2035.04 1663.59 2036.54 1380.03C2038.67 975.263 1767.28 797.517 1875.21 628.422C1927.85 545.962 2044.56 496.54 2138.21 517.355C2405.41 576.743 2618.6 1237.58 2397.98 1623.98C2298.2 1798.73 2163.98 1839.78 2114.96 2032.04C2071.64 2201.92 2151.05 2368.27 2219.78 2477.19Z" fill="white"/>
</mask>
<g mask="url(#mask0_231_10)">
<path d="M2070.08 2197.3C2061.87 2143.39 2058.29 2088.47 2059.43 2034.09C2062.05 1909.08 2089.52 1829.43 2124.29 1728.58C2146.88 1663.06 2172.48 1588.8 2195.73 1488.07C2239.21 1299.65 2250.21 1235.31 2244.73 1141.63C2233.89 956.122 2163.92 815.287 2123.18 747.847C2065.39 652.179 1990.19 569.683 1899.67 502.65L1901.82 499.744C1992.72 567.059 2068.24 649.903 2126.28 745.976C2167.19 813.702 2237.45 955.134 2248.34 1141.42C2253.84 1235.55 2242.83 1300.07 2199.25 1488.88C2175.96 1589.8 2150.33 1664.16 2127.71 1729.76C2093.04 1830.31 2065.66 1909.73 2063.04 2034.16C2061.9 2088.34 2065.48 2143.04 2073.65 2196.76L2070.08 2197.3Z" fill="white"/>
<path d="M2228.31 1014.74L2227.1 1012.02C2174.78 894.188 2066.4 849.427 1984.69 832.626C1895.96 814.379 1818.61 824.222 1817.83 824.324L1817.36 820.74C1818.14 820.636 1896.01 810.718 1985.32 829.063C2067.25 845.891 2175.74 890.578 2229.16 1007.77C2237.99 995.915 2276.88 940.738 2299.08 860.758C2322.16 777.627 2331.4 649.885 2244.39 513.417L2247.44 511.472C2335.21 649.118 2325.84 777.992 2302.53 861.866C2277.28 952.708 2230.64 1011.83 2230.17 1012.41L2228.31 1014.74Z" fill="white"/>
<path d="M2211.96 1437.61C2210.39 1437.61 2209.53 1437.59 2209.47 1437.59L2207.95 1437.54L2207.73 1436.04C2188.99 1306.53 2126.13 1231.86 2076.7 1192.03C2023.11 1148.84 1973.28 1136.12 1972.79 1135.99L1973.66 1132.48C1974.16 1132.61 2024.63 1145.47 2078.83 1189.1C2128.63 1229.19 2191.89 1304.17 2211.08 1433.99C2211.23 1433.99 2211.4 1433.99 2211.57 1433.99C2234.18 1433.99 2440.91 1428.89 2540.94 1249.73L2544.1 1251.49C2488.46 1351.15 2400.43 1396.44 2336.39 1416.89C2275.25 1436.41 2223.7 1437.61 2211.96 1437.61Z" fill="white"/>
<path d="M2195.89 1713.69C2157.14 1713.69 2133.96 1705.72 2133.66 1705.61L2132.44 1705.18L2132.45 1703.88C2134.05 1563.61 1979.93 1400.3 1978.37 1398.67L1980.99 1396.17C1982.55 1397.81 2136.72 1561.14 2136.08 1702.59C2143.13 1704.75 2180.27 1714.87 2235.79 1707.32C2292.65 1699.59 2380.97 1671.22 2478.82 1579.97L2481.29 1582.62C2382.64 1674.61 2293.47 1703.17 2236.04 1710.94C2221.32 1712.93 2207.86 1713.69 2195.89 1713.69Z" fill="white"/>
</g>
<path d="M2025.93 2345.99C1980.34 2273.92 1921.78 2156.01 1939.08 2021.1C1969.24 1785.75 2196.31 1763.53 2302.72 1480.03C2388.55 1251.38 2286.11 1145.22 2411.82 964.212C2432.86 933.914 2542.36 769.848 2680.65 782.267C2758.58 789.263 2811.06 849.106 2820.91 860.341C2969.8 1030.13 2899.46 1424.33 2697.14 1676.6C2580.9 1821.54 2521.08 1815.54 2296.13 2022.39C2163.95 2143.94 2077.34 2265.09 2025.93 2345.99Z" fill="url(#paint1_linear_231_10)"/>
<mask id="mask1_231_10" style="mask-type:luminance" maskUnits="userSpaceOnUse" x="1935" y="781" width="966" height="1565">
<path d="M2025.93 2345.99C1980.34 2273.92 1921.78 2156.01 1939.08 2021.1C1969.24 1785.75 2196.31 1763.53 2302.72 1480.03C2388.55 1251.38 2286.11 1145.22 2411.82 964.212C2432.86 933.914 2542.36 769.848 2680.65 782.267C2758.58 789.263 2811.06 849.106 2820.91 860.341C2969.8 1030.13 2899.46 1424.33 2697.14 1676.6C2580.9 1821.54 2521.08 1815.54 2296.13 2022.39C2163.95 2143.94 2077.34 2265.09 2025.93 2345.99Z" fill="white"/>
</mask>
<g mask="url(#mask1_231_10)">
<path d="M2039.43 2449.41C1999.63 2247.8 2020.14 2092.35 2100.4 1987.38C2139.7 1935.98 2178.95 1913.88 2220.49 1890.48C2265.12 1865.35 2311.27 1839.36 2358.87 1773.62C2405.13 1709.74 2412.11 1664.1 2420.94 1606.33C2428.89 1554.32 2438.79 1489.59 2480.82 1391.16C2517.67 1304.89 2551.1 1257.67 2580.59 1216.01C2612.51 1170.92 2637.72 1135.3 2655.35 1066.73C2684.15 954.724 2671.99 831.858 2619.21 701.549L2622.56 700.19C2675.64 831.233 2687.85 954.859 2658.85 1067.64C2641.06 1136.84 2615.67 1172.7 2583.54 1218.1C2554.15 1259.61 2520.84 1306.67 2484.15 1392.58C2442.29 1490.59 2432.44 1555.07 2424.51 1606.88C2415.61 1665.13 2408.57 1711.15 2361.8 1775.74C2313.74 1842.12 2267.23 1868.31 2222.27 1893.63C2181.05 1916.84 2142.12 1938.76 2103.27 1989.58C2023.67 2093.69 2003.38 2248.16 2042.98 2448.71L2039.43 2449.41Z" fill="white"/>
<path d="M2567.66 1237.8L2567.46 1235.39C2567.22 1232.45 2541.62 940.342 2402.1 874.206L2403.65 870.938C2538.22 934.729 2568.06 1204.25 2570.84 1232.69C2713.08 1176.88 2795.16 1079.37 2839.02 1007.2C2886.79 928.616 2900.76 862.419 2900.9 861.761L2904.44 862.488C2904.3 863.155 2890.2 929.965 2842.11 1009.08C2797.73 1082.1 2714.48 1180.9 2569.91 1236.93L2567.66 1237.8Z" fill="white"/>
<path d="M2446.45 1498.62C2445.57 1498.62 2445.09 1498.61 2445.03 1498.61L2443.48 1498.58L2443.27 1497.04C2433 1418.87 2397.08 1333.78 2368.75 1276.17C2338.05 1213.7 2309.43 1169.2 2309.14 1168.76L2312.18 1166.79C2312.46 1167.24 2341.21 1211.92 2372 1274.57C2400.25 1332.05 2436.04 1416.78 2446.65 1495C2458.17 1494.99 2532.58 1493.69 2626.76 1464.1C2720.87 1434.54 2854.54 1369.86 2956.9 1229.63L2959.82 1231.76C2856.84 1372.84 2722.38 1437.88 2627.71 1467.6C2532.65 1497.44 2457.56 1498.62 2446.45 1498.62Z" fill="white"/>
<path d="M2365.15 1879.41C2300.14 1879.41 2261.61 1870.63 2260.75 1870.42L2258.89 1869.98L2259.43 1868.15C2308.61 1701.01 2182.2 1512.58 2180.91 1510.69L2183.9 1508.66C2185.19 1510.55 2311.64 1698.97 2263.44 1867.3C2284.19 1871.6 2475.21 1906.4 2723.01 1795.21L2724.49 1798.51C2576.7 1864.82 2448.93 1879.41 2365.15 1879.41Z" fill="white"/>
</g>
<path d="M1995.39 2281.3C2025.38 2232.1 2076.95 2157.44 2157.6 2083.67C2301.05 1952.45 2393.31 1955.03 2434.57 1853.47C2477.28 1748.34 2398.61 1695.87 2452.26 1575.95C2456.77 1565.86 2515.34 1439.39 2614.93 1435.13C2684.6 1432.15 2736.93 1490.58 2761.49 1518C2856.8 1624.41 2912.21 1824.53 2819.01 1974.23C2730.65 2116.15 2553.4 2141.31 2496.97 2148.94C2397.98 2162.32 2362.31 2136.62 2262.82 2152.91C2141.82 2172.73 2051.52 2234.17 1995.39 2281.3Z" fill="#FFC444"/>
<path d="M973.271 2645.58C1018.86 2573.52 1077.42 2455.61 1060.13 2320.7C1029.96 2085.35 802.895 2063.13 696.484 1779.63C610.658 1550.98 713.096 1444.82 587.387 1263.81C566.345 1233.51 456.847 1069.45 318.554 1081.87C240.624 1088.86 188.147 1148.71 178.295 1159.94C29.404 1329.73 99.7471 1723.93 302.065 1976.2C418.305 2121.13 478.124 2115.14 703.074 2321.99C835.256 2443.54 921.86 2564.69 973.271 2645.58Z" fill="url(#paint2_linear_231_10)"/>
<mask id="mask2_231_10" style="mask-type:luminance" maskUnits="userSpaceOnUse" x="98" y="1081" width="966" height="1565">
<path d="M973.271 2645.58C1018.86 2573.52 1077.42 2455.61 1060.13 2320.7C1029.96 2085.35 802.895 2063.13 696.484 1779.63C610.658 1550.98 713.096 1444.82 587.387 1263.81C566.345 1233.51 456.847 1069.45 318.554 1081.87C240.624 1088.86 188.147 1148.71 178.295 1159.94C29.404 1329.73 99.7471 1723.93 302.065 1976.2C418.305 2121.13 478.124 2115.14 703.074 2321.99C835.256 2443.54 921.86 2564.69 973.271 2645.58Z" fill="white"/>
</mask>
<g mask="url(#mask2_231_10)">
<path d="M959.77 2749.01L956.225 2748.31C995.821 2547.77 975.535 2393.29 895.928 2289.18C857.079 2238.36 818.15 2216.44 776.936 2193.23C731.969 2167.91 685.468 2141.72 637.401 2075.34C590.63 2010.75 583.595 1964.73 574.689 1906.48C566.766 1854.67 556.909 1790.19 515.052 1692.18C478.362 1606.27 445.053 1559.22 415.665 1517.7C383.528 1472.3 358.145 1436.44 340.351 1367.23C311.356 1254.46 323.565 1130.83 376.644 999.792L379.993 1001.15C327.216 1131.46 315.056 1254.32 343.854 1366.33C361.483 1434.9 386.697 1470.52 418.617 1515.61C448.111 1557.27 481.536 1604.49 518.38 1690.76C560.416 1789.19 570.312 1853.92 578.262 1905.93C587.094 1963.7 594.072 2009.34 640.328 2073.22C687.935 2138.96 734.081 2164.95 778.711 2190.08C820.256 2213.48 859.497 2235.58 898.799 2286.98C979.063 2391.96 999.577 2547.4 959.77 2749.01Z" fill="white"/>
<path d="M431.546 1537.4L429.289 1536.53C284.721 1480.5 201.47 1381.7 157.089 1308.68C108.998 1229.56 94.8968 1162.75 94.7598 1162.09L98.3058 1161.36C98.4388 1162.02 112.449 1228.33 160.256 1306.93C204.117 1379.05 286.178 1476.5 428.363 1532.29C431.143 1503.85 460.984 1234.33 595.552 1170.54L597.104 1173.81C457.569 1239.95 431.986 1532.05 431.744 1534.99L431.546 1537.4Z" fill="white"/>
<path d="M552.76 1798.22C541.65 1798.22 466.557 1797.04 371.495 1767.2C276.826 1737.48 142.36 1672.43 39.385 1531.36L42.306 1529.23C144.702 1669.51 278.427 1734.19 372.577 1763.75C466.713 1793.3 541.023 1794.59 552.554 1794.6C563.162 1716.38 598.95 1631.65 627.201 1574.17C657.997 1511.52 686.739 1466.84 687.024 1466.39L690.064 1468.35C689.776 1468.8 661.132 1513.33 630.427 1575.81C602.113 1633.41 566.206 1718.48 555.931 1796.64L555.727 1798.18L554.172 1798.21C554.115 1798.21 553.634 1798.22 552.76 1798.22Z" fill="white"/>
<path d="M634.048 2179.01C550.268 2179.01 422.52 2164.43 274.708 2098.11L276.189 2094.81C523.978 2205.99 714.992 2171.2 735.759 2166.91C687.566 1998.57 814.011 1810.15 815.299 1808.26L818.29 1810.29C817.005 1812.18 690.595 2000.61 739.771 2167.75L740.308 2169.58L738.455 2170.02C737.592 2170.23 699.049 2179.01 634.048 2179.01Z" fill="white"/>
</g>
<path d="M1003.82 2580.9C973.823 2531.7 922.25 2457.04 841.602 2383.27C698.156 2252.05 605.891 2254.63 564.631 2153.07C521.922 2047.94 600.589 1995.47 546.94 1875.55C542.428 1865.46 483.857 1738.99 384.27 1734.73C314.602 1731.75 262.267 1790.19 237.71 1817.6C142.406 1924.01 86.9919 2124.13 180.193 2273.83C268.556 2415.75 445.802 2440.91 502.228 2448.54C601.218 2461.92 636.89 2436.22 736.386 2452.51C857.384 2472.33 947.684 2533.77 1003.82 2580.9Z" fill="url(#paint3_linear_231_10)"/>
<path d="M1713.97 968.043C1713.29 968.109 1712.63 968.142 1711.97 968.142C1701.36 968.142 1692.3 959.48 1691.27 947.909C1673.04 742.501 1610.69 547.337 1515.7 398.361C1431.54 266.382 1331.36 187.626 1247.65 187.626C1247.56 187.626 1247.47 187.626 1247.37 187.626C942.486 188.264 878.709 940.104 878.102 947.701C877.116 960.004 867.08 969.114 855.58 968.06C844.128 967.001 835.641 956.172 836.624 943.874C839.236 911.196 904.515 143.632 1247.29 142.911C1247.41 142.911 1247.54 142.911 1247.66 142.911C1346.56 142.911 1456.75 226.781 1550.04 373.094C1648.95 528.216 1713.83 730.846 1732.71 943.661C1733.8 955.953 1725.41 966.87 1713.97 968.043Z" fill="url(#paint4_linear_231_10)"/>
<path d="M441.801 2515.49L843.151 2733.74L1086.33 1932.23L685.64 857.703L572.022 887.625L399.628 2430.84C395.725 2465.78 412.577 2499.6 441.801 2515.49Z" fill="url(#paint5_linear_231_10)"/>
<path opacity="0.3" d="M1086.33 1932.23L685.64 857.703L618.623 875.352C609.331 1018.82 613.414 1136.89 619.726 1222.86C646.586 1588.71 735.793 1690.51 692.578 1945.73C656.645 2157.95 578.174 2186.75 585.033 2329.52C592.505 2485.02 693.481 2615.24 813.534 2717.63L843.149 2733.74L1086.33 1932.23Z" fill="url(#paint6_linear_231_10)"/>
<path d="M685.64 857.703L2197.06 939.987L2677.38 2575L843.151 2733.74L685.64 857.703Z" fill="url(#paint7_linear_231_10)"/>
<g opacity="0.3">
<path d="M2197.06 939.986L1408.84 897.075C1395.54 917.989 1377.92 952.057 1374.64 995.519C1355.24 1252.57 1885.66 1335.79 1933.18 1651.32C1969.36 1891.54 1746.74 2168.72 1548.1 2292.21C1338.82 2422.32 1197.02 2356.43 1055.48 2500.88C993.289 2564.34 955.419 2643.7 932.898 2725.97L2677.38 2574.99L2197.06 939.986Z" fill="url(#paint8_linear_231_10)"/>
</g>
<path d="M1149.22 1004.89C1139.78 1004.89 1131.23 997.938 1128.98 987.633C1124.72 968.159 1026.4 508.005 1165.04 282.178C1204.77 217.455 1260.28 177.937 1330.03 164.723C1688.41 96.8989 1909.05 923.631 1918.27 958.858C1921.38 970.746 1914.93 983.087 1903.86 986.428C1892.79 989.779 1881.31 982.836 1878.2 970.954C1876.04 962.722 1658.84 147.776 1337.26 208.76C1278.41 219.906 1233.45 251.973 1199.79 306.79C1070.92 516.712 1168.51 972.842 1169.51 977.428C1172.13 989.446 1165.19 1001.48 1154 1004.3C1152.4 1004.7 1150.8 1004.89 1149.22 1004.89Z" fill="url(#paint9_linear_231_10)"/>
<path d="M1149.37 1070.74C1181.5 1070.74 1207.54 1042.77 1207.54 1008.26C1207.54 973.757 1181.5 945.783 1149.37 945.783C1117.24 945.783 1091.2 973.757 1091.2 1008.26C1091.2 1042.77 1117.24 1070.74 1149.37 1070.74Z" fill="url(#paint10_linear_231_10)"/>
<path d="M1908 1064.95C1940.13 1064.95 1966.18 1036.98 1966.18 1002.47C1966.18 967.961 1940.13 939.987 1908 939.987C1875.88 939.987 1849.83 967.961 1849.83 1002.47C1849.83 1036.98 1875.88 1064.95 1908 1064.95Z" fill="url(#paint11_linear_231_10)"/>
<path d="M2312.72 1726.74L1843.48 1269.17C1833.59 1259.53 1819.42 1256.83 1807.05 1262.23L1556.63 1371.56C1535.52 1380.77 1528.25 1408.94 1541.92 1428.52L1950.61 2013.67C1961.91 2029.84 1983.15 2033.41 1998.5 2021.71L2309.47 1784.79C2327.57 1771 2329.16 1742.76 2312.72 1726.74ZM1776.14 1430.03C1760.32 1441.44 1735.41 1431.37 1720.48 1407.52C1705.55 1383.67 1706.26 1355.08 1722.07 1343.66C1737.89 1332.24 1762.8 1342.32 1777.73 1366.17C1792.66 1390.02 1791.95 1418.61 1776.14 1430.03Z" fill="#D8DEE8"/>
<path d="M2312.72 1720.49L1843.48 1262.93C1833.59 1253.28 1819.42 1250.58 1807.05 1255.99L1556.63 1365.32C1535.52 1374.53 1528.25 1402.7 1541.92 1422.27L1950.61 2007.43C1961.91 2023.6 1983.15 2027.17 1998.5 2015.47L2309.47 1778.55C2327.57 1764.75 2329.16 1736.51 2312.72 1720.49ZM1776.14 1423.78C1760.32 1435.2 1735.41 1425.12 1720.48 1401.27C1705.55 1377.42 1706.26 1348.83 1722.07 1337.42C1737.89 1326 1762.8 1336.08 1777.73 1359.92C1792.66 1383.77 1791.95 1412.36 1776.14 1423.78Z" fill="#F4F7FA"/>
<path d="M1678.61 1311.41C1677.11 1311.41 1675.69 1310.53 1675.07 1309.06C1658.81 1270.74 1636.89 1237.64 1609.9 1210.68C1535.96 1136.8 1440.47 1125.19 1348.13 1113.95C1256.24 1102.77 1169.45 1092.21 1117.6 1019.09C1104.48 1000.58 1084.09 967.128 1095.03 951.03C1099.42 944.573 1108.18 941.601 1121.04 942.217C1123.17 942.317 1124.81 944.12 1124.71 946.243C1124.61 948.368 1122.83 950.042 1120.68 949.907C1113.79 949.586 1104.86 950.263 1101.4 955.357C1095.59 963.91 1104.41 987.18 1123.89 1014.64C1173.76 1084.98 1258.91 1095.34 1349.06 1106.31C1442.7 1117.7 1539.52 1129.48 1615.34 1205.23C1643.03 1232.9 1665.51 1266.82 1682.15 1306.06C1682.99 1308.01 1682.07 1310.27 1680.11 1311.1C1679.62 1311.31 1679.11 1311.41 1678.61 1311.41Z" fill="#26264F"/>
<path d="M1718.69 1388.84C1717.7 1388.84 1716.72 1388.46 1715.96 1387.71C1714.46 1386.2 1714.47 1383.77 1715.98 1382.27C1716.3 1381.94 1748.43 1349.43 1748.27 1306.06C1748.18 1279.42 1736.06 1254.06 1712.25 1230.68C1661.77 1181.11 1527.83 1123.7 1409.66 1073.05C1337.54 1042.13 1269.41 1012.93 1224.67 987.748C1214.53 982.036 1203.8 976.614 1192.77 971.632C1190.84 970.757 1189.98 968.476 1190.85 966.539C1191.73 964.602 1194.01 963.739 1195.95 964.617C1207.17 969.692 1218.11 975.217 1228.45 981.039C1272.83 1006.01 1340.77 1035.14 1412.7 1065.97C1531.49 1116.89 1666.13 1174.61 1717.65 1225.19C1743 1250.09 1755.89 1277.31 1755.97 1306.11C1756.1 1352.73 1722.82 1386.32 1721.4 1387.73C1720.65 1388.47 1719.67 1388.84 1718.69 1388.84Z" fill="#26264F"/>
<path d="M2312.72 1720.49L1843.48 1262.93C1833.58 1253.28 1819.42 1250.58 1807.05 1255.99L1784.74 1265.72C1790.57 1286.99 1799.31 1310.92 1812.63 1335.35C1881.94 1462.45 1995.66 1456.97 2021.94 1545.17C2045.22 1623.35 1967.11 1665.29 1956.82 1774.98C1951.67 1829.79 1963.42 1902.7 2026.31 1994.28L2309.47 1778.55C2327.57 1764.75 2329.16 1736.51 2312.72 1720.49Z" fill="white"/>
<path d="M1891.66 1564.74C1917.36 1607.25 1912.04 1642.51 1891.56 1656.79C1870 1671.84 1839.02 1660.57 1815.96 1622.43C1794.04 1586.18 1792.87 1547.88 1817.05 1531.02C1841.45 1514 1870.68 1530.05 1891.66 1564.74ZM1839.82 1604.01C1852.68 1625.27 1866.95 1637.08 1876.53 1630.4C1885.9 1623.86 1882.16 1606.92 1868.36 1584.1C1855.89 1563.47 1842.33 1550.27 1832.09 1557.41C1822.28 1564.25 1827.54 1583.7 1839.82 1604.01ZM1944.71 1740.6L1898.97 1473.87L1916.83 1461.41L1962.36 1728.28L1944.71 1740.6ZM2044.64 1578.01C2070.35 1620.52 2065.03 1655.78 2044.55 1670.06C2023.2 1684.96 1992.22 1673.68 1968.95 1635.7C1947.02 1599.44 1945.86 1561.15 1970.04 1544.28C1994.44 1527.26 2023.67 1543.31 2044.64 1578.01ZM1993.02 1617.13C2005.66 1638.53 2019.93 1650.35 2029.52 1643.67C2038.89 1637.13 2035.14 1620.19 2021.35 1597.37C2008.87 1576.74 1995.53 1563.39 1985.29 1570.53C1975.27 1577.52 1980.74 1596.81 1993.02 1617.13Z" fill="#D8DEE8"/>
<path d="M1954.54 1888.15C1948.26 1888.15 1942.12 1884.73 1938.62 1878.53C1933.29 1869.1 1936.09 1856.81 1944.87 1851.08L2170.84 1703.74C2179.63 1698.02 2191.07 1701.03 2196.4 1710.46C2201.74 1719.89 2198.94 1732.18 2190.15 1737.91L1964.18 1885.25C1961.16 1887.21 1957.83 1888.15 1954.54 1888.15Z" fill="#D8DEE8"/>
<path d="M1656.3 2739.73C1656.3 2760.25 1641.73 2777.9 1623.86 2778.96L364.508 2855.88C340.65 2857.29 313.719 2837.11 313.719 2813.26V1931.93C313.719 1908.08 341.298 1888.03 365.156 1889.02L1623.86 1942.9C1641.73 1943.64 1656.3 1961.03 1656.3 1981.55V2739.73Z" fill="url(#paint12_linear_231_10)"/>
<path d="M1679.65 2741.17C1679.65 2761.79 1665.01 2779.52 1647.05 2780.59L374.249 2856.04C350.276 2857.46 330.572 2839.02 330.572 2815.05V1929.47C330.572 1905.5 350.275 1886.71 374.249 1887.7L1647.05 1940.48C1665.01 1941.23 1679.65 1958.7 1679.65 1979.32V2741.17Z" fill="url(#paint13_linear_231_10)"/>
<path d="M1679.65 2533.56L330.572 2602.77V2764.96L1679.65 2685.76V2533.56Z" fill="url(#paint14_linear_231_10)"/>
<g opacity="0.15">
<path d="M728.727 2180.55C727.204 2281.19 664.256 2333.5 594.175 2333.23C517.817 2332.94 456.61 2274.39 458.064 2178.26C459.447 2086.86 517.025 2021.75 602.578 2028.14C685.587 2034.34 729.97 2098.41 728.727 2180.55ZM547.456 2178.62C546.662 2231.12 563.841 2269.28 597.404 2269.91C629.707 2270.51 645.81 2237.59 646.643 2182.51C647.397 2132.71 634.623 2093.43 599.349 2091.31C565.028 2089.26 548.216 2128.43 547.456 2178.62ZM618.314 2502.19L861.506 2061.87C866.157 2053.45 875.288 2048.51 884.882 2049.23C902.718 2050.56 913.221 2069.88 904.645 2085.57L664.143 2525.76C660.014 2533.32 652.237 2538.17 643.634 2538.55L640.944 2538.67C621.741 2539.52 609.02 2519.01 618.314 2502.19ZM1034.43 2378.1C1033.02 2471.31 978.984 2522.32 919.029 2524.95C854.542 2527.78 802.52 2476.37 803.174 2387.78C804.449 2303.53 853.531 2240.91 926.53 2242.87C997.571 2244.78 1035.58 2302.02 1034.43 2378.1ZM879.968 2384.22C878.573 2432.7 893.193 2467.18 921.855 2466.34C949.474 2465.54 963.288 2434.44 964.059 2383.5C964.756 2337.44 954.502 2301.72 924.351 2301.35C894.396 2300.99 880.669 2337.89 879.968 2384.22Z" fill="url(#paint15_linear_231_10)"/>
</g>
<path d="M740.473 2175.86C738.95 2276.51 676.002 2328.81 605.921 2328.54C529.563 2328.25 468.356 2269.71 469.81 2173.58C471.193 2082.18 528.771 2017.06 614.324 2023.46C697.333 2029.66 741.716 2093.72 740.473 2175.86ZM559.202 2173.93C558.408 2226.44 575.587 2264.6 609.15 2265.22C641.453 2265.82 657.555 2232.91 658.388 2177.83C659.142 2128.03 646.369 2088.74 611.095 2086.63C576.774 2084.57 559.962 2123.75 559.202 2173.93ZM630.059 2497.5L873.252 2057.19C877.903 2048.77 887.034 2043.83 896.628 2044.54C914.465 2045.88 924.967 2065.19 916.391 2080.89L675.888 2521.08C671.759 2528.64 663.983 2533.48 655.38 2533.86L652.689 2533.98C633.486 2534.83 620.765 2514.32 630.059 2497.5ZM1046.17 2373.41C1044.76 2466.63 990.73 2517.63 930.775 2520.26C866.288 2523.1 814.265 2471.68 814.919 2383.09C816.194 2298.84 865.277 2236.22 938.276 2238.18C1009.32 2240.09 1047.32 2297.33 1046.17 2373.41ZM891.714 2379.53C890.319 2428.01 904.939 2462.5 933.601 2461.66C961.22 2460.85 975.034 2429.75 975.805 2378.81C976.502 2332.76 966.247 2297.03 936.096 2296.67C906.141 2296.3 892.415 2333.21 891.714 2379.53Z" fill="white"/>
<path opacity="0.3" d="M1647.05 1940.48L388.909 1888.31C445.695 2056.47 527.02 2131.8 596.863 2168.67C729.842 2238.87 825.215 2171.83 939.204 2262.72C1056.15 2355.96 1011.64 2471.07 1134.83 2548.63C1227.42 2606.93 1287.1 2563.65 1383.12 2616.35C1454.24 2655.38 1498.67 2721.48 1527.09 2787.7L1647.05 2780.59C1665.01 2779.52 1679.65 2761.78 1679.65 2741.17V1979.32C1679.65 1958.7 1665.01 1941.22 1647.05 1940.48Z" fill="url(#paint16_linear_231_10)"/>
<path opacity="0.3" d="M1661.93 2343.53L1631.23 2314.4L1602.1 2345.1L1571.4 2315.97L1542.27 2346.67L1511.57 2317.54L1482.44 2348.24L1451.74 2319.11L1422.61 2349.81L1391.92 2320.68L1362.79 2351.38L1332.09 2322.25L1302.96 2352.95L1272.26 2323.82L1243.13 2354.51L1212.43 2325.39L1183.3 2356.08L1144.08 2318.86C1144.08 2333.72 1144.08 2778.71 1144.08 2778.71C1144.08 2778.71 1142.47 2805.05 1110.64 2811.98L1653.58 2772.17C1659.78 2771.71 1665.58 2769.97 1670.79 2767.27C1676.26 2760.23 1679.64 2751.04 1679.64 2741.17V2324.85L1661.93 2343.53Z" fill="url(#paint17_linear_231_10)"/>
<path d="M1749.21 2328.28V2747.16C1749.21 2770.54 1730.59 2789.96 1707.29 2791.68L1535.12 2804.29L1163.12 2831.49C1194.96 2824.56 1195.65 2798.22 1195.65 2798.22C1195.65 2798.22 1195.65 2353.24 1195.65 2338.37L1235.65 2375.6L1256.6 2353.93L1265.36 2344.9L1296.16 2374.03L1325.33 2343.33L1356.05 2372.46L1385.19 2341.76L1415.9 2370.88L1445.03 2340.19L1475.73 2369.31L1504.85 2338.61L1535.55 2367.74L1564.7 2337.04L1595.4 2366.17L1624.52 2335.47L1655.22 2364.61L1684.35 2333.9L1715.63 2363.04L1749.21 2328.28Z" fill="white"/>
<path d="M1686.53 2571.55L1619.39 2574.58C1614.87 2574.78 1611.31 2578.5 1611.31 2583.02V2613.84C1611.31 2618.7 1615.39 2622.55 1620.24 2622.28L1687.39 2618.5C1691.86 2618.24 1695.36 2614.54 1695.36 2610.05V2580C1695.36 2575.18 1691.34 2571.33 1686.53 2571.55Z" fill="#D8DEE8"/>
<path d="M1686.43 2631.11L1619.29 2634.9C1614.81 2635.15 1611.31 2638.85 1611.31 2643.34V2675.51C1611.31 2680.4 1615.43 2684.26 1620.3 2683.95L1687.45 2679.67C1691.9 2679.38 1695.36 2675.69 1695.36 2671.23V2639.55C1695.36 2634.7 1691.28 2630.84 1686.43 2631.11Z" fill="#D8DEE8"/>
<path d="M1695.36 2486.13V2431C1695.36 2426.21 1691.39 2422.38 1686.61 2422.55L1619.46 2424.96C1614.91 2425.13 1611.31 2428.86 1611.31 2433.41V2489.16C1611.31 2493.98 1615.33 2497.82 1620.15 2497.61L1687.29 2494.58C1691.81 2494.38 1695.36 2490.66 1695.36 2486.13Z" fill="#D8DEE8"/>
<path d="M1547.02 2577.84L1273.62 2590.17C1269.11 2590.37 1265.55 2594.09 1265.55 2598.61V2633.33C1265.55 2638.19 1269.63 2642.04 1274.48 2641.77L1547.88 2626.36C1552.36 2626.11 1555.86 2622.4 1555.86 2617.92V2586.29C1555.86 2581.47 1551.84 2577.63 1547.02 2577.84Z" fill="#D8DEE8"/>
<path d="M1546.93 2638.98L1273.53 2654.39C1269.05 2654.64 1265.55 2658.34 1265.55 2662.83V2697.59C1265.55 2702.47 1269.67 2706.33 1274.54 2706.02L1547.94 2688.57C1552.39 2688.29 1555.86 2684.59 1555.86 2680.14V2647.42C1555.86 2642.56 1551.78 2638.7 1546.93 2638.98Z" fill="#D8DEE8"/>
<path d="M1555.86 2492.43V2436.02C1555.86 2431.23 1551.89 2427.4 1547.1 2427.57L1273.7 2437.41C1269.15 2437.58 1265.55 2441.31 1265.55 2445.86V2504.75C1265.55 2509.57 1269.57 2513.41 1274.39 2513.2L1547.79 2500.87C1552.3 2500.67 1555.86 2496.95 1555.86 2492.43Z" fill="#D8DEE8"/>
<path opacity="0.4" d="M1534.83 2804.29L1162.97 2831.49C1194.81 2824.56 1195.65 2798.22 1195.65 2798.22C1195.65 2798.22 1195.65 2353.24 1195.65 2338.37L1235.65 2375.6L1256.6 2353.93C1274.08 2369.74 1288.12 2395.13 1292.03 2435.37C1305.03 2569.33 1367.78 2560.51 1441.86 2565.54C1515.94 2570.57 1550.04 2656.31 1520.06 2722.55C1506.65 2752.17 1512.12 2782.04 1534.83 2804.29Z" fill="#F4F7FA"/>
<path d="M296.188 2820.03V2874.94C296.188 2892.68 407.024 2907.06 543.746 2907.06C680.468 2907.06 791.304 2892.68 791.304 2874.94V2820.03H296.188Z" fill="url(#paint18_linear_231_10)"/>
<path d="M791.305 2820.03C791.305 2837.77 680.469 2852.16 543.747 2852.16C407.025 2852.16 296.189 2837.77 296.189 2820.03C296.189 2802.29 407.025 2787.9 543.747 2787.9C680.469 2787.9 791.305 2802.29 791.305 2820.03Z" fill="url(#paint19_linear_231_10)"/>
<path d="M543.745 2854.37C422.66 2854.37 296.044 2842.81 296.044 2820.5C296.044 2819.27 296.481 2817.12 297.706 2817.12C298.931 2817.12 298.404 2818.8 298.404 2820.03C298.404 2834.18 399.163 2849.94 543.745 2849.94C688.328 2849.94 789.087 2834.18 789.087 2820.03C789.087 2818.8 789.296 2817.66 790.521 2817.66C791.746 2817.66 791.45 2819.29 791.45 2820.52C791.451 2842.82 664.831 2854.37 543.745 2854.37Z" fill="url(#paint20_linear_231_10)"/>
<path d="M520.353 2821.82C522.782 2820.14 525.367 2818.48 528.134 2816.84C530.874 2815.21 534.445 2813.73 538.769 2812.41C543.118 2811.09 548.558 2810.02 555.088 2809.18C561.618 2808.35 569.783 2807.91 579.532 2807.86C589.099 2807.82 598.073 2808.12 606.477 2808.77C614.855 2809.43 622.249 2810.41 628.634 2811.71C634.993 2813.01 640.186 2814.62 644.189 2816.53C648.166 2818.45 650.536 2820.65 651.3 2823.13L679.174 2823.41C681.197 2823.42 682.986 2823.58 684.518 2823.9C686.075 2824.22 686.829 2824.62 686.831 2825.11L686.842 2827.4L651.007 2827.06C649.75 2829.87 646.548 2832.44 641.399 2834.77C636.277 2837.11 629.726 2839.13 621.749 2840.83L608.698 2839.02C607.53 2838.84 606.569 2838.61 605.816 2838.34C605.063 2838.06 604.699 2837.77 604.697 2837.44C604.695 2837 605.703 2836.5 607.723 2835.93C609.742 2835.36 612.021 2834.66 614.557 2833.83C617.094 2832.99 619.579 2832.01 622.036 2830.87C624.468 2829.73 626.095 2828.38 626.942 2826.79L542.359 2825.96C540.137 2827.59 537.63 2829.2 534.889 2830.77C532.122 2832.35 528.473 2833.78 523.916 2835.04C519.359 2836.3 513.686 2837.32 506.896 2838.11C500.08 2838.9 491.552 2839.32 481.233 2839.37C473.48 2839.41 465.934 2839.11 458.541 2838.49C451.148 2837.86 444.584 2836.93 438.848 2835.68C433.111 2834.43 428.411 2832.89 424.72 2831.06C421.055 2829.22 418.996 2827.11 418.57 2824.72L395.622 2824.49C393.599 2824.47 391.81 2824.31 390.2 2824.01C388.617 2823.7 387.811 2823.3 387.809 2822.79L387.798 2820.49L419.173 2820.79C420.561 2818.37 423.403 2816.26 427.75 2814.47C432.097 2812.68 437.405 2811.08 443.673 2809.68L454.181 2811.12C457.373 2811.57 458.957 2812.1 458.96 2812.7C458.961 2813.02 458.315 2813.43 456.995 2813.91C455.649 2814.39 454.096 2814.97 452.284 2815.64C450.498 2816.31 448.739 2817.09 447.058 2817.99C445.351 2818.89 444.085 2819.91 443.236 2821.05L520.353 2821.82ZM442.945 2824.95C443.575 2826.45 444.981 2827.75 447.113 2828.84C449.244 2829.93 451.894 2830.83 455.086 2831.53C458.279 2832.23 461.86 2832.75 465.828 2833.08C469.823 2833.41 473.998 2833.56 478.354 2833.54C483.436 2833.51 487.869 2833.29 491.652 2832.88C495.41 2832.47 498.725 2831.91 501.6 2831.2C504.449 2830.49 506.96 2829.67 509.082 2828.73C511.203 2827.79 513.091 2826.77 514.797 2825.67L442.945 2824.95ZM627.081 2822.9C626.451 2821.37 624.914 2820.03 622.524 2818.89C620.132 2817.74 617.068 2816.77 613.357 2815.99C609.645 2815.21 605.312 2814.63 600.358 2814.25C595.43 2813.87 589.984 2813.69 584.021 2813.72C578.732 2813.75 574.143 2813.98 570.334 2814.43C566.524 2814.88 563.209 2815.48 560.386 2816.24C557.589 2816.99 555.182 2817.87 553.243 2818.88C551.277 2819.88 549.441 2820.96 547.761 2822.11L627.081 2822.9Z" fill="#FCB048"/>
<path d="M543.78 2791.38C433.398 2791.38 318.466 2801.09 300.082 2819.9C300.801 2820.56 301.47 2821.27 302.091 2822.01C317.586 2808.96 412.488 2795.81 543.78 2795.81C678.442 2795.81 774.865 2809.64 786.545 2823.02C787.119 2822.29 787.733 2821.58 788.396 2820.92C773.212 2801.45 656.123 2791.38 543.78 2791.38Z" fill="url(#paint21_linear_231_10)"/>
<path d="M227.369 2762.35V2817.26C227.369 2835.01 338.205 2849.39 474.927 2849.39C611.649 2849.39 722.485 2835.01 722.485 2817.26V2762.35H227.369Z" fill="url(#paint22_linear_231_10)"/>
<path d="M722.485 2762.35C722.485 2780.1 611.65 2794.48 474.927 2794.48C338.204 2794.48 227.369 2780.1 227.369 2762.35C227.369 2744.61 338.205 2730.23 474.927 2730.23C611.649 2730.23 722.485 2744.61 722.485 2762.35Z" fill="url(#paint23_linear_231_10)"/>
<path d="M474.926 2796.7C353.841 2796.7 227.225 2785.13 227.225 2762.82C227.225 2761.6 227.662 2759.45 228.887 2759.45C230.112 2759.45 229.585 2761.13 229.585 2762.35C229.585 2776.5 330.343 2792.26 474.926 2792.26C619.509 2792.26 720.268 2776.5 720.268 2762.35C720.268 2761.13 720.477 2759.98 721.702 2759.98C722.927 2759.98 722.632 2761.62 722.632 2762.84C722.631 2785.15 596.011 2796.7 474.926 2796.7Z" fill="url(#paint24_linear_231_10)"/>
<path d="M451.534 2764.14C453.963 2762.46 456.548 2760.81 459.314 2759.17C462.054 2757.53 465.625 2756.05 469.949 2754.73C474.299 2753.41 479.739 2752.34 486.268 2751.51C492.798 2750.67 500.963 2750.23 510.712 2750.19C520.28 2750.14 529.253 2750.44 537.657 2751.1C546.035 2751.75 553.43 2752.73 559.814 2754.03C566.173 2755.33 571.367 2756.94 575.369 2758.86C579.346 2760.78 581.716 2762.97 582.48 2765.45L610.354 2765.73C612.377 2765.74 614.167 2765.91 615.698 2766.22C617.256 2766.54 618.009 2766.94 618.011 2767.43L618.022 2769.73L582.187 2769.38C580.93 2772.19 577.728 2774.76 572.579 2777.09C567.457 2779.43 560.907 2781.45 552.929 2783.16L539.878 2781.34C538.71 2781.16 537.75 2780.94 536.997 2780.66C536.243 2780.39 535.879 2780.09 535.877 2779.76C535.875 2779.32 536.884 2778.82 538.903 2778.25C540.923 2777.69 543.201 2776.98 545.738 2776.15C548.275 2775.32 550.759 2774.33 553.217 2773.19C555.649 2772.05 557.276 2770.7 558.123 2769.12L473.54 2768.28C471.318 2769.91 468.811 2771.52 466.07 2773.1C463.303 2774.68 459.655 2776.1 455.098 2777.36C450.541 2778.62 444.867 2779.65 438.077 2780.43C431.262 2781.22 422.733 2781.64 412.414 2781.69C404.662 2781.73 397.114 2781.43 389.722 2780.81C382.33 2780.18 375.765 2779.25 370.029 2778C364.293 2776.76 359.592 2775.21 355.901 2773.38C352.236 2771.54 350.177 2769.43 349.751 2767.04L326.803 2766.81C324.781 2766.79 322.991 2766.64 321.381 2766.33C319.798 2766.02 318.992 2765.62 318.99 2765.11L318.979 2762.81L350.355 2763.11C351.743 2760.69 354.585 2758.59 358.932 2756.79C363.279 2755 368.587 2753.4 374.855 2752L385.363 2753.45C388.554 2753.89 390.138 2754.42 390.142 2755.02C390.144 2755.35 389.497 2755.75 388.177 2756.23C386.831 2756.71 385.279 2757.29 383.466 2757.96C381.68 2758.63 379.921 2759.41 378.24 2760.32C376.533 2761.22 375.268 2762.24 374.418 2763.38L451.534 2764.14ZM374.126 2767.27C374.756 2768.78 376.162 2770.07 378.294 2771.16C380.426 2772.26 383.075 2773.15 386.268 2773.85C389.461 2774.56 393.042 2775.07 397.01 2775.4C401.005 2775.73 405.18 2775.88 409.535 2775.86C414.617 2775.84 419.05 2775.62 422.833 2775.21C426.591 2774.79 429.907 2774.23 432.782 2773.52C435.631 2772.81 438.141 2771.99 440.263 2771.05C442.385 2770.11 444.272 2769.1 445.979 2768L374.126 2767.27ZM558.261 2765.22C557.631 2763.69 556.095 2762.36 553.704 2761.21C551.313 2760.06 548.249 2759.1 544.537 2758.32C540.826 2757.53 536.493 2756.95 531.539 2756.57C526.61 2756.19 521.164 2756.01 515.201 2756.04C509.911 2756.07 505.323 2756.31 501.514 2756.75C497.705 2757.2 494.389 2757.8 491.566 2758.56C488.77 2759.31 486.362 2760.19 484.423 2761.2C482.457 2762.21 480.621 2763.28 478.942 2764.43L558.261 2765.22Z" fill="#FCB048"/>
<path d="M474.96 2733.71C364.578 2733.71 249.646 2743.42 231.262 2762.22C231.981 2762.88 232.65 2763.59 233.271 2764.34C248.767 2751.28 343.669 2738.14 474.959 2738.14C609.621 2738.14 706.044 2751.97 717.724 2765.34C718.298 2764.61 718.911 2763.91 719.575 2763.25C704.392 2743.78 587.303 2733.71 474.96 2733.71Z" fill="url(#paint25_linear_231_10)"/>
<path d="M286.75 2704.85V2759.75C286.75 2777.5 397.586 2791.88 534.309 2791.88C671.031 2791.88 781.867 2777.5 781.867 2759.75V2704.85H286.75Z" fill="url(#paint26_linear_231_10)"/>
<path d="M781.867 2704.85C781.867 2722.59 671.032 2736.97 534.309 2736.97C397.586 2736.97 286.75 2722.59 286.75 2704.85C286.75 2687.1 397.586 2672.72 534.309 2672.72C671.032 2672.72 781.867 2687.1 781.867 2704.85Z" fill="url(#paint27_linear_231_10)"/>
<path d="M534.308 2739.19C413.223 2739.19 286.606 2727.62 286.606 2705.32C286.606 2704.09 287.043 2701.94 288.268 2701.94C289.493 2701.94 288.966 2703.62 288.966 2704.85C288.966 2718.99 389.724 2734.76 534.308 2734.76C678.892 2734.76 779.649 2718.99 779.649 2704.85C779.649 2703.62 779.858 2702.47 781.083 2702.47C782.308 2702.47 782.013 2704.11 782.013 2705.33C782.014 2727.64 655.394 2739.19 534.308 2739.19Z" fill="url(#paint28_linear_231_10)"/>
<path d="M510.916 2706.64C513.345 2704.96 515.929 2703.3 518.696 2701.66C521.437 2700.02 525.007 2698.55 529.331 2697.23C533.681 2695.91 539.12 2694.83 545.65 2694C552.18 2693.17 560.345 2692.73 570.094 2692.68C579.662 2692.63 588.635 2692.94 597.039 2693.59C605.417 2694.24 612.812 2695.22 619.196 2696.52C625.555 2697.83 630.749 2699.44 634.751 2701.35C638.727 2703.27 641.098 2705.46 641.861 2707.94L669.735 2708.22C671.758 2708.23 673.548 2708.4 675.079 2708.72C676.636 2709.04 677.39 2709.44 677.392 2709.92L677.403 2712.22L641.568 2711.87C640.311 2714.68 637.109 2717.25 631.96 2719.59C626.838 2721.92 620.288 2723.94 612.31 2725.65L599.259 2723.83C598.092 2723.66 597.131 2723.43 596.378 2723.15C595.624 2722.88 595.26 2722.58 595.258 2722.25C595.256 2721.81 596.265 2721.31 598.284 2720.75C600.304 2720.18 602.582 2719.48 605.119 2718.64C607.656 2717.81 610.14 2716.82 612.597 2715.68C615.029 2714.55 616.656 2713.19 617.504 2711.61L532.921 2710.77C530.699 2712.41 528.192 2714.01 525.451 2715.59C522.685 2717.17 519.036 2718.59 514.479 2719.85C509.922 2721.11 504.248 2722.14 497.459 2722.93C490.644 2723.71 482.115 2724.13 471.796 2724.18C464.043 2724.22 456.496 2723.93 449.103 2723.3C441.711 2722.68 435.146 2721.74 429.41 2720.5C423.674 2719.25 418.973 2717.7 415.282 2715.87C411.617 2714.03 409.558 2711.92 409.131 2709.53L386.183 2709.3C384.16 2709.29 382.37 2709.13 380.761 2708.82C379.178 2708.52 378.372 2708.11 378.37 2707.6L378.359 2705.3L409.735 2705.6C411.123 2703.19 413.965 2701.08 418.312 2699.28C422.658 2697.49 427.967 2695.89 434.234 2694.5L444.742 2695.94C447.933 2696.39 449.517 2696.91 449.521 2697.51C449.522 2697.84 448.876 2698.24 447.556 2698.72C446.21 2699.2 444.657 2699.78 442.845 2700.45C441.059 2701.12 439.3 2701.91 437.619 2702.81C435.912 2703.71 434.647 2704.73 433.797 2705.87L510.916 2706.64ZM433.508 2709.76C434.138 2711.27 435.544 2712.57 437.676 2713.66C439.807 2714.75 442.456 2715.64 445.649 2716.35C448.842 2717.05 452.423 2717.57 456.391 2717.9C460.386 2718.22 464.561 2718.38 468.917 2718.36C473.999 2718.33 478.432 2718.11 482.215 2717.7C485.973 2717.29 489.288 2716.73 492.164 2716.02C495.013 2715.31 497.524 2714.48 499.645 2713.54C501.766 2712.61 503.654 2711.59 505.36 2710.49L433.508 2709.76ZM617.643 2707.71C617.014 2706.19 615.477 2704.85 613.086 2703.7C610.695 2702.56 607.63 2701.59 603.919 2700.81C600.207 2700.03 595.875 2699.45 590.92 2699.07C585.991 2698.68 580.545 2698.51 574.583 2698.54C569.293 2698.56 564.705 2698.8 560.896 2699.25C557.087 2699.7 553.771 2700.29 550.948 2701.05C548.152 2701.81 545.744 2702.69 543.805 2703.7C541.839 2704.7 540.003 2705.78 538.324 2706.92L617.643 2707.71Z" fill="#FCB048"/>
<path d="M534.342 2676.2C423.96 2676.2 309.028 2685.91 290.644 2704.71C291.363 2705.38 292.032 2706.09 292.653 2706.83C308.148 2693.77 403.05 2680.63 534.341 2680.63C669.003 2680.63 765.426 2694.46 777.106 2707.84C777.68 2707.1 778.293 2706.4 778.957 2705.74C763.774 2686.27 646.685 2676.2 534.342 2676.2Z" fill="url(#paint29_linear_231_10)"/>
<path d="M322.786 2647.17V2702.08C322.786 2719.82 433.621 2734.21 570.344 2734.21C707.066 2734.21 817.902 2719.82 817.902 2702.08V2647.17H322.786Z" fill="url(#paint30_linear_231_10)"/>
<path d="M570.344 2679.3C707.067 2679.3 817.902 2664.91 817.902 2647.17C817.902 2629.43 707.067 2615.04 570.344 2615.04C433.622 2615.04 322.786 2629.43 322.786 2647.17C322.786 2664.91 433.622 2679.3 570.344 2679.3Z" fill="url(#paint31_linear_231_10)"/>
<path d="M570.343 2681.51C449.258 2681.51 322.641 2669.95 322.641 2647.64C322.641 2646.41 323.078 2644.26 324.303 2644.26C325.528 2644.26 325.001 2645.94 325.001 2647.17C325.001 2661.32 425.759 2677.08 570.342 2677.08C714.925 2677.08 815.684 2661.32 815.684 2647.17C815.684 2645.95 815.893 2644.8 817.118 2644.8C818.343 2644.8 818.047 2646.43 818.047 2647.66C818.048 2669.96 691.428 2681.51 570.343 2681.51Z" fill="url(#paint32_linear_231_10)"/>
<path d="M546.95 2648.96C549.379 2647.28 551.964 2645.62 554.73 2643.98C557.471 2642.35 561.042 2640.87 565.365 2639.55C569.715 2638.23 575.155 2637.16 581.684 2636.32C588.214 2635.49 596.38 2635.05 606.128 2635C615.695 2634.96 624.669 2635.26 633.073 2635.92C641.452 2636.57 648.845 2637.55 655.23 2638.85C661.589 2640.15 666.782 2641.76 670.785 2643.68C674.762 2645.6 677.132 2647.79 677.896 2650.27L705.771 2650.55C707.794 2650.56 709.584 2650.73 711.115 2651.04C712.672 2651.36 713.426 2651.76 713.428 2652.25L713.439 2654.55L677.604 2654.2C676.347 2657.01 673.145 2659.58 667.996 2661.91C662.874 2664.25 656.323 2666.27 648.346 2667.98L635.295 2666.16C634.127 2665.98 633.166 2665.76 632.413 2665.48C631.66 2665.21 631.296 2664.91 631.294 2664.58C631.292 2664.14 632.301 2663.64 634.32 2663.07C636.34 2662.51 638.618 2661.8 641.154 2660.97C643.691 2660.13 646.175 2659.15 648.633 2658.01C651.065 2656.87 652.692 2655.52 653.539 2653.94L568.956 2653.1C566.734 2654.73 564.227 2656.34 561.486 2657.92C558.719 2659.49 555.071 2660.92 550.513 2662.18C545.956 2663.44 540.283 2664.46 533.493 2665.25C526.678 2666.04 518.149 2666.46 507.829 2666.51C500.077 2666.55 492.53 2666.25 485.137 2665.63C477.744 2665 471.18 2664.07 465.443 2662.82C459.707 2661.57 455.007 2660.03 451.316 2658.2C447.651 2656.36 445.592 2654.25 445.166 2651.86L422.218 2651.63C420.196 2651.61 418.406 2651.45 416.797 2651.15C415.214 2650.84 414.408 2650.44 414.405 2649.93L414.394 2647.63L445.769 2647.93C447.157 2645.51 450 2643.4 454.347 2641.61C458.694 2639.81 464.002 2638.22 470.27 2636.82L480.778 2638.26C483.97 2638.71 485.554 2639.23 485.557 2639.84C485.559 2640.16 484.912 2640.57 483.592 2641.05C482.246 2641.53 480.693 2642.11 478.881 2642.77C477.095 2643.45 475.336 2644.23 473.655 2645.13C471.948 2646.03 470.683 2647.05 469.833 2648.19L546.95 2648.96ZM469.542 2652.09C470.172 2653.59 471.578 2654.89 473.71 2655.98C475.842 2657.07 478.491 2657.97 481.683 2658.67C484.876 2659.37 488.457 2659.89 492.426 2660.22C496.42 2660.55 500.595 2660.7 504.951 2660.68C510.033 2660.66 514.465 2660.44 518.249 2660.02C522.007 2659.61 525.323 2659.05 528.198 2658.34C531.046 2657.63 533.558 2656.81 535.679 2655.87C537.8 2654.93 539.688 2653.91 541.394 2652.82L469.542 2652.09ZM653.678 2650.04C653.048 2648.51 651.512 2647.17 649.121 2646.03C646.73 2644.88 643.666 2643.91 639.954 2643.13C636.242 2642.35 631.909 2641.77 626.955 2641.39C622.027 2641.01 616.581 2640.83 610.617 2640.86C605.328 2640.89 600.74 2641.12 596.93 2641.57C593.12 2642.02 589.804 2642.62 586.982 2643.38C584.185 2644.13 581.778 2645.01 579.839 2646.02C577.873 2647.02 576.037 2648.1 574.358 2649.25L653.678 2650.04Z" fill="#FCB048"/>
<path d="M570.377 2618.52C459.995 2618.52 345.063 2628.24 326.679 2647.04C327.399 2647.7 328.067 2648.41 328.689 2649.15C344.184 2636.1 439.086 2622.95 570.377 2622.95C705.039 2622.95 801.461 2636.78 813.142 2650.16C813.716 2649.43 814.33 2648.72 814.993 2648.06C799.809 2628.59 682.72 2618.52 570.377 2618.52Z" fill="url(#paint33_linear_231_10)"/>
<path d="M296.188 2584.95V2639.85C296.188 2657.6 407.024 2671.98 543.746 2671.98C680.468 2671.98 791.304 2657.6 791.304 2639.85V2584.95H296.188Z" fill="url(#paint34_linear_231_10)"/>
<path d="M791.305 2584.95C791.305 2602.69 680.469 2617.07 543.747 2617.07C407.025 2617.07 296.189 2602.69 296.189 2584.95C296.189 2567.2 407.025 2552.82 543.747 2552.82C680.469 2552.82 791.305 2567.2 791.305 2584.95Z" fill="url(#paint35_linear_231_10)"/>
<path d="M543.745 2619.29C422.66 2619.29 296.044 2607.72 296.044 2585.42C296.044 2584.19 296.481 2582.04 297.706 2582.04C298.931 2582.04 298.404 2583.72 298.404 2584.95C298.404 2599.09 399.163 2614.85 543.745 2614.85C688.328 2614.85 789.087 2599.09 789.087 2584.95C789.087 2583.72 789.296 2582.57 790.521 2582.57C791.746 2582.57 791.45 2584.21 791.45 2585.43C791.451 2607.74 664.831 2619.29 543.745 2619.29Z" fill="url(#paint36_linear_231_10)"/>
<path d="M520.353 2586.74C522.782 2585.05 525.367 2583.4 528.134 2581.76C530.874 2580.12 534.445 2578.65 538.769 2577.33C543.118 2576.01 548.558 2574.93 555.088 2574.1C561.618 2573.26 569.783 2572.83 579.532 2572.78C589.099 2572.73 598.073 2573.04 606.477 2573.69C614.855 2574.34 622.249 2575.32 628.634 2576.62C634.993 2577.93 640.186 2579.54 644.189 2581.45C648.166 2583.37 650.536 2585.57 651.3 2588.04L679.174 2588.32C681.197 2588.34 682.986 2588.5 684.518 2588.82C686.075 2589.13 686.829 2589.54 686.831 2590.02L686.842 2592.32L651.007 2591.97C649.75 2594.78 646.548 2597.36 641.399 2599.69C636.277 2602.02 629.726 2604.04 621.749 2605.75L608.698 2603.93C607.53 2603.76 606.569 2603.53 605.816 2603.25C605.063 2602.98 604.699 2602.68 604.697 2602.36C604.695 2601.91 605.703 2601.41 607.723 2600.85C609.742 2600.28 612.021 2599.58 614.557 2598.74C617.094 2597.91 619.579 2596.92 622.036 2595.78C624.468 2594.65 626.095 2593.29 626.942 2591.71L542.359 2590.87C540.137 2592.51 537.63 2594.11 534.889 2595.69C532.122 2597.27 528.473 2598.69 523.916 2599.95C519.359 2601.21 513.686 2602.24 506.896 2603.03C500.08 2603.81 491.552 2604.23 481.233 2604.28C473.48 2604.32 465.934 2604.03 458.541 2603.4C451.148 2602.78 444.584 2601.84 438.848 2600.6C433.111 2599.35 428.411 2597.8 424.72 2595.97C421.055 2594.13 418.996 2592.02 418.57 2589.64L395.622 2589.4C393.599 2589.39 391.81 2589.23 390.2 2588.92C388.617 2588.62 387.811 2588.21 387.809 2587.7L387.798 2585.41L419.173 2585.7C420.561 2583.29 423.403 2581.18 427.75 2579.38C432.097 2577.59 437.405 2575.99 443.673 2574.59L454.181 2576.04C457.373 2576.49 458.957 2577.01 458.96 2577.61C458.961 2577.94 458.315 2578.34 456.995 2578.82C455.649 2579.3 454.096 2579.88 452.284 2580.55C450.498 2581.22 448.739 2582.01 447.058 2582.91C445.351 2583.81 444.085 2584.83 443.236 2585.97L520.353 2586.74ZM442.945 2589.86C443.575 2591.37 444.981 2592.66 447.113 2593.75C449.244 2594.85 451.894 2595.74 455.086 2596.45C458.279 2597.15 461.86 2597.66 465.828 2597.99C469.823 2598.32 473.998 2598.48 478.354 2598.46C483.436 2598.43 487.869 2598.21 491.652 2597.8C495.41 2597.38 498.725 2596.83 501.6 2596.11C504.449 2595.4 506.96 2594.58 509.082 2593.64C511.203 2592.71 513.091 2591.69 514.797 2590.59L442.945 2589.86ZM627.081 2587.81C626.451 2586.29 624.914 2584.95 622.524 2583.8C620.132 2582.65 617.068 2581.69 613.357 2580.91C609.645 2580.13 605.312 2579.54 600.358 2579.16C595.43 2578.78 589.984 2578.61 584.021 2578.63C578.732 2578.66 574.143 2578.9 570.334 2579.34C566.524 2579.79 563.209 2580.39 560.386 2581.15C557.589 2581.91 555.182 2582.79 553.243 2583.79C551.277 2584.8 549.441 2585.87 547.761 2587.02L627.081 2587.81Z" fill="#FCB048"/>
<path d="M543.78 2556.3C433.398 2556.3 318.466 2566.01 300.082 2584.81C300.801 2585.48 301.47 2586.18 302.091 2586.93C317.586 2573.87 412.488 2560.73 543.78 2560.73C678.442 2560.73 774.865 2574.56 786.545 2587.93C787.119 2587.2 787.733 2586.5 788.396 2585.84C773.212 2566.37 656.123 2556.3 543.78 2556.3Z" fill="url(#paint37_linear_231_10)"/>
<path d="M227.369 2527.27V2582.18C227.369 2599.92 338.205 2614.3 474.927 2614.3C611.649 2614.3 722.485 2599.92 722.485 2582.18V2527.27H227.369Z" fill="url(#paint38_linear_231_10)"/>
<path d="M474.927 2559.4C611.65 2559.4 722.485 2545.01 722.485 2527.27C722.485 2509.53 611.65 2495.14 474.927 2495.14C338.205 2495.14 227.369 2509.53 227.369 2527.27C227.369 2545.01 338.205 2559.4 474.927 2559.4Z" fill="url(#paint39_linear_231_10)"/>
<path d="M474.926 2561.61C353.841 2561.61 227.225 2550.05 227.225 2527.74C227.225 2526.51 227.662 2524.36 228.887 2524.36C230.112 2524.36 229.585 2526.04 229.585 2527.27C229.585 2541.42 330.343 2557.18 474.926 2557.18C619.509 2557.18 720.268 2541.42 720.268 2527.27C720.268 2526.04 720.477 2524.9 721.702 2524.9C722.927 2524.9 722.632 2526.53 722.632 2527.76C722.631 2550.06 596.011 2561.61 474.926 2561.61Z" fill="url(#paint40_linear_231_10)"/>
<path d="M451.534 2529.06C453.963 2527.38 456.548 2525.72 459.314 2524.08C462.054 2522.45 465.625 2520.97 469.949 2519.65C474.299 2518.33 479.739 2517.26 486.268 2516.42C492.798 2515.59 500.963 2515.15 510.712 2515.1C520.28 2515.06 529.253 2515.36 537.657 2516.01C546.035 2516.67 553.43 2517.65 559.814 2518.95C566.173 2520.25 571.367 2521.86 575.369 2523.77C579.346 2525.69 581.716 2527.89 582.48 2530.37L610.354 2530.65C612.377 2530.66 614.167 2530.82 615.698 2531.14C617.256 2531.46 618.009 2531.86 618.011 2532.35L618.022 2534.64L582.187 2534.3C580.93 2537.11 577.728 2539.68 572.579 2542.01C567.457 2544.35 560.907 2546.37 552.929 2548.07L539.878 2546.26C538.71 2546.08 537.75 2545.85 536.997 2545.58C536.243 2545.3 535.879 2545 535.877 2544.68C535.875 2544.24 536.884 2543.73 538.903 2543.17C540.923 2542.6 543.201 2541.9 545.738 2541.06C548.275 2540.23 550.759 2539.25 553.217 2538.11C555.649 2536.97 557.276 2535.61 558.123 2534.03L473.54 2533.2C471.318 2534.83 468.811 2536.44 466.07 2538.01C463.303 2539.59 459.655 2541.02 455.098 2542.28C450.541 2543.54 444.867 2544.56 438.077 2545.35C431.262 2546.14 422.733 2546.56 412.414 2546.61C404.662 2546.64 397.114 2546.35 389.722 2545.73C382.33 2545.1 375.765 2544.16 370.029 2542.92C364.293 2541.67 359.592 2540.13 355.901 2538.29C352.236 2536.46 350.177 2534.35 349.751 2531.96L326.803 2531.72C324.781 2531.71 322.991 2531.55 321.381 2531.25C319.798 2530.94 318.992 2530.53 318.99 2530.02L318.979 2527.73L350.355 2528.03C351.743 2525.61 354.585 2523.5 358.932 2521.71C363.279 2519.91 368.587 2518.32 374.855 2516.92L385.363 2518.36C388.554 2518.81 390.138 2519.34 390.142 2519.94C390.144 2520.26 389.497 2520.67 388.177 2521.15C386.831 2521.63 385.279 2522.21 383.466 2522.87C381.68 2523.55 379.921 2524.33 378.24 2525.23C376.533 2526.13 375.268 2527.15 374.418 2528.29L451.534 2529.06ZM374.126 2532.19C374.756 2533.69 376.162 2534.99 378.294 2536.08C380.426 2537.17 383.075 2538.07 386.268 2538.77C389.461 2539.47 393.042 2539.99 397.01 2540.32C401.005 2540.65 405.18 2540.8 409.535 2540.78C414.617 2540.76 419.05 2540.54 422.833 2540.12C426.591 2539.71 429.907 2539.15 432.782 2538.44C435.631 2537.73 438.141 2536.91 440.263 2535.97C442.385 2535.03 444.272 2534.01 445.979 2532.92L374.126 2532.19ZM558.261 2530.14C557.631 2528.61 556.095 2527.27 553.704 2526.13C551.313 2524.98 548.249 2524.01 544.537 2523.23C540.826 2522.45 536.493 2521.87 531.539 2521.49C526.61 2521.11 521.164 2520.93 515.201 2520.96C509.911 2520.99 505.323 2521.22 501.514 2521.67C497.705 2522.12 494.389 2522.72 491.566 2523.48C488.77 2524.23 486.362 2525.11 484.423 2526.12C482.457 2527.12 480.621 2528.2 478.942 2529.34L558.261 2530.14Z" fill="#FCB048"/>
<path d="M474.96 2498.62C364.578 2498.62 249.646 2508.33 231.262 2527.14C231.981 2527.8 232.65 2528.51 233.271 2529.25C248.767 2516.2 343.669 2503.05 474.959 2503.05C609.621 2503.05 706.044 2516.88 717.724 2530.26C718.298 2529.53 718.911 2528.82 719.575 2528.16C704.392 2508.69 587.303 2498.62 474.96 2498.62Z" fill="url(#paint41_linear_231_10)"/>
<path d="M286.75 2469.76V2524.67C286.75 2542.42 397.586 2556.8 534.309 2556.8C671.031 2556.8 781.867 2542.42 781.867 2524.67V2469.76H286.75Z" fill="url(#paint42_linear_231_10)"/>
<path d="M534.309 2501.89C671.032 2501.89 781.868 2487.5 781.868 2469.76C781.868 2452.02 671.032 2437.64 534.309 2437.64C397.586 2437.64 286.75 2452.02 286.75 2469.76C286.75 2487.5 397.586 2501.89 534.309 2501.89Z" fill="url(#paint43_linear_231_10)"/>
<path d="M534.308 2504.1C413.223 2504.1 286.606 2492.54 286.606 2470.23C286.606 2469.01 287.043 2466.85 288.268 2466.85C289.493 2466.85 288.966 2468.54 288.966 2469.76C288.966 2483.91 389.724 2499.67 534.308 2499.67C678.892 2499.67 779.649 2483.91 779.649 2469.76C779.649 2468.54 779.858 2467.39 781.083 2467.39C782.308 2467.39 782.013 2469.02 782.013 2470.25C782.014 2492.56 655.394 2504.1 534.308 2504.1Z" fill="url(#paint44_linear_231_10)"/>
<path d="M510.916 2471.55C513.345 2469.87 515.929 2468.21 518.696 2466.58C521.437 2464.94 525.007 2463.46 529.331 2462.14C533.681 2460.82 539.12 2459.75 545.65 2458.92C552.18 2458.08 560.345 2457.64 570.094 2457.6C579.662 2457.55 588.635 2457.85 597.039 2458.51C605.417 2459.16 612.812 2460.14 619.196 2461.44C625.555 2462.74 630.749 2464.35 634.751 2466.27C638.727 2468.19 641.098 2470.38 641.861 2472.86L669.735 2473.14C671.758 2473.15 673.548 2473.32 675.079 2473.63C676.636 2473.95 677.39 2474.35 677.392 2474.84L677.403 2477.14L641.568 2476.79C640.311 2479.6 637.109 2482.17 631.96 2484.5C626.838 2486.84 620.288 2488.86 612.31 2490.57L599.259 2488.75C598.092 2488.57 597.131 2488.35 596.378 2488.07C595.624 2487.8 595.26 2487.5 595.258 2487.17C595.256 2486.73 596.265 2486.23 598.284 2485.66C600.304 2485.1 602.582 2484.4 605.119 2483.56C607.656 2482.73 610.14 2481.74 612.597 2480.6C615.029 2479.47 616.656 2478.11 617.504 2476.53L532.921 2475.69C530.699 2477.32 528.192 2478.93 525.451 2480.51C522.685 2482.09 519.036 2483.51 514.479 2484.77C509.922 2486.03 504.248 2487.06 497.459 2487.85C490.644 2488.63 482.115 2489.05 471.796 2489.1C464.043 2489.14 456.496 2488.85 449.103 2488.22C441.711 2487.6 435.146 2486.66 429.41 2485.42C423.674 2484.17 418.973 2482.63 415.282 2480.79C411.617 2478.95 409.558 2476.84 409.131 2474.46L386.183 2474.22C384.16 2474.21 382.37 2474.05 380.761 2473.74C379.178 2473.44 378.372 2473.03 378.37 2472.52L378.359 2470.23L409.735 2470.52C411.123 2468.11 413.965 2466 418.312 2464.21C422.658 2462.41 427.967 2460.81 434.234 2459.42L444.742 2460.86C447.933 2461.31 449.517 2461.83 449.521 2462.43C449.522 2462.76 448.876 2463.16 447.556 2463.64C446.21 2464.13 444.657 2464.7 442.845 2465.37C441.059 2466.04 439.3 2466.83 437.619 2467.73C435.912 2468.63 434.647 2469.65 433.797 2470.79L510.916 2471.55ZM433.508 2474.68C434.138 2476.19 435.544 2477.48 437.676 2478.57C439.807 2479.67 442.456 2480.56 445.649 2481.26C448.842 2481.97 452.423 2482.48 456.391 2482.81C460.386 2483.14 464.561 2483.29 468.917 2483.27C473.999 2483.25 478.432 2483.03 482.215 2482.62C485.973 2482.2 489.288 2481.64 492.164 2480.93C495.013 2480.22 497.524 2479.4 499.645 2478.46C501.766 2477.52 503.654 2476.51 505.36 2475.41L433.508 2474.68ZM617.643 2472.63C617.014 2471.1 615.477 2469.77 613.086 2468.62C610.695 2467.47 607.63 2466.51 603.919 2465.73C600.207 2464.94 595.875 2464.36 590.92 2463.98C585.991 2463.6 580.545 2463.42 574.583 2463.45C569.293 2463.48 564.705 2463.72 560.896 2464.16C557.087 2464.61 553.771 2465.21 550.948 2465.97C548.152 2466.72 545.744 2467.6 543.805 2468.61C541.839 2469.62 540.003 2470.69 538.324 2471.84L617.643 2472.63Z" fill="#FCB048"/>
<path d="M534.342 2441.11C423.96 2441.11 309.028 2450.83 290.644 2469.63C291.363 2470.29 292.032 2471 292.653 2471.75C308.148 2458.69 403.05 2445.55 534.341 2445.55C669.003 2445.55 765.426 2459.38 777.106 2472.75C777.68 2472.02 778.293 2471.32 778.957 2470.66C763.774 2451.19 646.685 2441.11 534.342 2441.11Z" fill="url(#paint45_linear_231_10)"/>
<path d="M255.864 2412.09V2467C255.864 2484.74 366.7 2499.12 503.422 2499.12C640.144 2499.12 750.98 2484.74 750.98 2467V2412.09H255.864Z" fill="url(#paint46_linear_231_10)"/>
<path d="M503.422 2444.21C640.145 2444.21 750.98 2429.83 750.98 2412.09C750.98 2394.34 640.145 2379.96 503.422 2379.96C366.7 2379.96 255.864 2394.34 255.864 2412.09C255.864 2429.83 366.7 2444.21 503.422 2444.21Z" fill="url(#paint47_linear_231_10)"/>
<path d="M503.421 2446.43C382.336 2446.43 255.72 2434.86 255.72 2412.56C255.72 2411.33 256.157 2409.18 257.382 2409.18C258.607 2409.18 258.08 2410.86 258.08 2412.09C258.08 2426.23 358.839 2442 503.421 2442C648.004 2442 748.762 2426.23 748.762 2412.09C748.762 2410.86 748.971 2409.71 750.196 2409.71C751.421 2409.71 751.126 2411.35 751.126 2412.57C751.126 2434.88 624.506 2446.43 503.421 2446.43Z" fill="url(#paint48_linear_231_10)"/>
<path d="M480.029 2413.88C482.458 2412.2 485.043 2410.54 487.809 2408.9C490.55 2407.26 494.121 2405.79 498.444 2404.47C502.794 2403.15 508.234 2402.07 514.764 2401.24C521.294 2400.41 529.459 2399.97 539.208 2399.92C548.775 2399.87 557.748 2400.18 566.152 2400.83C574.53 2401.48 581.925 2402.46 588.309 2403.76C594.668 2405.07 599.862 2406.68 603.865 2408.59C607.841 2410.51 610.211 2412.7 610.975 2415.18L638.849 2415.46C640.872 2415.47 642.662 2415.64 644.193 2415.96C645.75 2416.28 646.504 2416.68 646.506 2417.16L646.517 2419.46L610.682 2419.11C609.425 2421.92 606.223 2424.49 601.074 2426.83C595.952 2429.16 589.402 2431.18 581.424 2432.89L568.373 2431.07C567.205 2430.9 566.244 2430.67 565.491 2430.39C564.737 2430.12 564.373 2429.82 564.371 2429.5C564.369 2429.05 565.378 2428.55 567.397 2427.99C569.417 2427.42 571.695 2426.72 574.232 2425.88C576.769 2425.05 579.253 2424.06 581.711 2422.92C584.143 2421.79 585.77 2420.43 586.617 2418.85L502.034 2418.01C499.812 2419.65 497.305 2421.25 494.564 2422.83C491.797 2424.41 488.149 2425.83 483.591 2427.09C479.034 2428.36 473.36 2429.38 466.571 2430.17C459.756 2430.95 451.227 2431.37 440.908 2431.42C433.156 2431.46 425.608 2431.17 418.216 2430.54C410.823 2429.92 404.259 2428.98 398.522 2427.74C392.786 2426.49 388.085 2424.95 384.394 2423.11C380.729 2421.27 378.67 2419.16 378.244 2416.78L355.296 2416.54C353.273 2416.53 351.483 2416.37 349.874 2416.06C348.291 2415.76 347.485 2415.35 347.482 2414.84L347.471 2412.55L378.847 2412.85C380.235 2410.43 383.077 2408.32 387.424 2406.53C391.771 2404.73 397.079 2403.13 403.347 2401.74L413.855 2403.18C417.046 2403.63 418.63 2404.15 418.634 2404.75C418.636 2405.08 417.989 2405.48 416.669 2405.96C415.323 2406.44 413.771 2407.02 411.959 2407.69C410.173 2408.36 408.414 2409.15 406.733 2410.05C405.026 2410.95 403.761 2411.97 402.911 2413.11L480.029 2413.88ZM402.621 2417C403.251 2418.51 404.657 2419.81 406.789 2420.9C408.92 2421.99 411.569 2422.88 414.762 2423.59C417.955 2424.29 421.536 2424.8 425.504 2425.13C429.499 2425.46 433.674 2425.62 438.029 2425.6C443.111 2425.57 447.544 2425.35 451.327 2424.94C455.085 2424.52 458.402 2423.96 461.276 2423.25C464.125 2422.54 466.635 2421.72 468.757 2420.78C470.878 2419.85 472.766 2418.83 474.472 2417.73L402.621 2417ZM586.756 2414.95C586.126 2413.43 584.59 2412.09 582.199 2410.94C579.808 2409.8 576.744 2408.83 573.032 2408.05C569.321 2407.27 564.988 2406.68 560.034 2406.3C555.105 2405.92 549.66 2405.75 543.696 2405.77C538.407 2405.8 533.818 2406.04 530.009 2406.49C526.199 2406.93 522.883 2407.53 520.061 2408.29C517.264 2409.05 514.857 2409.93 512.918 2410.93C510.952 2411.94 509.117 2413.01 507.437 2414.16L586.756 2414.95Z" fill="#FCB048"/>
<path d="M503.455 2383.44C393.073 2383.44 278.141 2393.15 259.757 2411.95C260.476 2412.62 261.145 2413.33 261.766 2414.07C277.261 2401.02 372.163 2387.87 503.454 2387.87C638.116 2387.87 734.539 2401.7 746.219 2415.08C746.792 2414.34 747.406 2413.64 748.07 2412.98C732.888 2393.51 615.798 2383.44 503.455 2383.44Z" fill="url(#paint49_linear_231_10)"/>
<path d="M821.398 2450.8L776.653 2482.62C762.194 2492.91 814.717 2591.56 893.965 2702.97C973.213 2814.39 1049.18 2896.37 1063.64 2886.08L1108.38 2854.26L821.398 2450.8Z" fill="url(#paint50_linear_231_10)"/>
<path d="M1108.38 2854.26C1093.92 2864.54 1017.96 2782.56 938.71 2671.15C859.462 2559.74 806.939 2461.08 821.398 2450.8C835.856 2440.51 911.82 2522.49 991.069 2633.91C1070.32 2745.32 1122.84 2843.97 1108.38 2854.26Z" fill="url(#paint51_linear_231_10)"/>
<path d="M936.905 2672.43C866.721 2573.76 802.755 2463.88 820.933 2450.95C821.931 2450.24 823.939 2449.35 824.649 2450.35C825.359 2451.34 823.681 2451.89 822.683 2452.6C811.155 2460.8 856.714 2552.04 940.518 2669.86C1024.32 2787.68 1095.57 2860.65 1107.1 2852.45C1108.09 2851.74 1109.15 2851.24 1109.86 2852.24C1110.57 2853.24 1109.07 2853.95 1108.07 2854.66C1089.89 2867.59 1007.09 2771.1 936.905 2672.43Z" fill="url(#paint52_linear_231_10)"/>
<path d="M949.871 2634.5C952.649 2635.51 955.497 2636.65 958.435 2637.96C961.356 2639.24 964.63 2641.3 968.212 2644.05C971.809 2646.83 975.837 2650.64 980.3 2655.48C984.764 2660.32 989.854 2666.72 995.544 2674.64C1001.13 2682.4 1006.08 2689.89 1010.42 2697.12C1014.74 2704.33 1018.23 2710.92 1020.87 2716.88C1023.5 2722.81 1025.19 2727.98 1025.96 2732.35C1026.7 2736.7 1026.28 2739.91 1024.71 2741.96L1040.63 2764.84C1041.8 2766.5 1042.7 2768.05 1043.33 2769.48C1043.97 2770.94 1044.08 2771.78 1043.69 2772.07L1041.82 2773.41L1021.33 2744.01C1018.31 2744.61 1014.36 2743.49 1009.48 2740.65C1004.61 2737.83 999.164 2733.66 993.147 2728.15L987.061 2716.46C986.53 2715.41 986.158 2714.49 985.947 2713.72C985.733 2712.95 985.765 2712.48 986.029 2712.29C986.388 2712.03 987.383 2712.56 989.013 2713.88C990.646 2715.19 992.538 2716.65 994.69 2718.23C996.84 2719.81 999.083 2721.27 1001.43 2722.61C1003.77 2723.93 1005.82 2724.47 1007.6 2724.25L959.256 2654.83C956.635 2653.97 953.874 2652.86 950.999 2651.54C948.109 2650.2 944.835 2648.05 941.165 2645.07C937.496 2642.09 933.373 2638.06 928.795 2632.98C924.203 2627.88 918.92 2621.18 912.896 2612.8C908.372 2606.5 904.237 2600.18 900.46 2593.8C896.685 2587.41 893.643 2581.52 891.333 2576.12C889.025 2570.72 887.557 2566 886.913 2561.93C886.287 2557.88 886.813 2554.98 888.51 2553.24L875.401 2534.41C874.239 2532.75 873.33 2531.2 872.647 2529.71C871.978 2528.25 871.843 2527.35 872.256 2527.06L874.12 2525.72L892.063 2551.46C894.838 2551.19 898.204 2552.28 902.185 2554.78C906.168 2557.28 910.545 2560.68 915.318 2564.98L920.233 2574.38C921.717 2577.24 922.208 2578.84 921.719 2579.19C921.454 2579.38 920.752 2579.08 919.594 2578.29C918.421 2577.47 917.051 2576.54 915.457 2575.45C913.875 2574.38 912.217 2573.4 910.507 2572.56C908.784 2571.69 907.22 2571.25 905.797 2571.22L949.871 2634.5ZM902.455 2573.24C901.593 2574.62 901.353 2576.52 901.7 2578.89C902.045 2581.26 902.851 2583.94 904.128 2586.95C905.406 2589.96 907.062 2593.17 909.095 2596.59C911.143 2600.04 913.436 2603.53 915.979 2607.07C918.945 2611.2 921.693 2614.68 924.222 2617.53C926.738 2620.35 929.116 2622.73 931.361 2624.66C933.591 2626.57 935.716 2628.14 937.711 2629.32C939.706 2630.51 941.628 2631.46 943.512 2632.21L902.455 2573.24ZM1010.86 2722.09C1011.73 2720.7 1011.93 2718.67 1011.48 2716.06C1011.03 2713.44 1010.04 2710.39 1008.53 2706.91C1007.01 2703.43 1004.98 2699.56 1002.41 2695.31C999.868 2691.07 996.856 2686.53 993.376 2681.69C990.289 2677.39 987.436 2673.79 984.864 2670.94C982.291 2668.1 979.88 2665.75 977.626 2663.89C975.39 2662.04 973.277 2660.59 971.333 2659.59C969.374 2658.58 967.433 2657.7 965.525 2657L1010.86 2722.09Z" fill="#FCB048"/>
<path d="M988.254 2635.95C924.274 2546 849.741 2457.97 823.763 2453.89C823.64 2454.86 823.451 2455.82 823.204 2456.75C842.824 2461.82 908.543 2531.53 984.643 2638.52C1062.7 2748.25 1107.32 2834.84 1103.19 2852.11C1104.12 2852.15 1105.05 2852.25 1105.97 2852.4C1113.03 2828.75 1053.37 2727.49 988.254 2635.95Z" fill="url(#paint53_linear_231_10)"/>
<path d="M2268.99 2744.26L2246.59 2746.02C2240.77 2746.48 2234.95 2746.25 2229.2 2745.3L2140.35 2730.82L2138.9 2730.59L2035.65 2713.74L2035.01 2713.7L1954.1 2700.6V2245.37L2035.49 2245.32H2035.65L2138.9 2250.45L2140.43 2251.22L2265.31 2256.03L2268.99 2744.26Z" fill="url(#paint54_linear_231_10)"/>
<path d="M2583.17 2274.35V2699.25C2583.17 2714.45 2571.5 2726.87 2556.39 2727.77L2260.06 2745.4C2248.07 2746.11 2237.84 2736.16 2237.84 2723.8V2281.13C2237.84 2268.76 2247.54 2258.51 2259.57 2258.17L2558.04 2249.86C2571.88 2249.47 2583.17 2260.46 2583.17 2274.35Z" fill="url(#paint55_linear_231_10)"/>
<path d="M1954.73 2245.37L2237.84 2258.78L2558.04 2249.86L2229.76 2239.16L1954.73 2245.37Z" fill="url(#paint56_linear_231_10)"/>
<path opacity="0.3" d="M2557.62 2249.87L2323.87 2256.38C2310.57 2256.75 2299.71 2267.97 2299.73 2281.55C2299.75 2304.23 2303.53 2327.66 2313.51 2350.27C2346.79 2425.64 2421.17 2428.42 2436.65 2497.6C2449.54 2555.24 2403.88 2580.04 2399.05 2653.7C2397.79 2673.05 2399.46 2693.87 2405.22 2716.18C2408.25 2727.93 2419.17 2735.93 2431.08 2735.22L2559.77 2727.57C2572.97 2726.78 2583.17 2715.93 2583.17 2702.65V2274.77C2583.17 2260.65 2571.69 2249.48 2557.62 2249.87Z" fill="url(#paint57_linear_231_10)"/>
<path d="M2341.71 2740.54L2451.58 2734V2252.82L2341.71 2255.89V2740.54Z" fill="url(#paint58_linear_231_10)"/>
<path d="M2346.66 2740.24L2451.58 2734V2252.82L2346.66 2255.75V2740.24Z" fill="url(#paint59_linear_231_10)"/>
<path d="M2137.42 2251.91V2730.82L2036.77 2713.74V2249.2L2068.83 2248.58L2137.42 2251.91Z" fill="url(#paint60_linear_231_10)"/>
<path d="M2147.74 2241.01L2454.02 2258.43H2343.9L2076.13 2242.63L2147.74 2241.01Z" fill="url(#paint61_linear_231_10)"/>
<path d="M2296.77 2226.31C2303.91 2182.62 2309.12 2150.69 2337.65 2121.21C2349.68 2108.77 2362.82 2095.19 2384.36 2091.59C2409.14 2087.45 2440.77 2097.22 2449.43 2117.45C2457.66 2136.67 2438.27 2149.18 2446.51 2171.25C2454.79 2193.44 2478.9 2192.96 2481.55 2210.88C2483.78 2226.05 2468.97 2243.27 2454.02 2251.34C2428.19 2265.27 2413.53 2245.67 2363.09 2248.84C2328.33 2251.02 2308.27 2262.02 2298.86 2250.92C2294.38 2245.64 2294.82 2238.3 2296.77 2226.31Z" fill="url(#paint62_linear_231_10)"/>
<g opacity="0.3">
<path d="M2434.83 2209.21C2403.69 2197.3 2387.73 2171.38 2373.93 2177.51C2361.68 2182.96 2369.16 2205.71 2354.75 2224.23C2341.59 2241.13 2317.46 2245.16 2296.02 2245.17C2296.56 2247.34 2297.44 2249.25 2298.86 2250.92C2308.27 2262.02 2328.33 2251.02 2363.09 2248.83C2413.53 2245.67 2428.19 2265.27 2454.02 2251.34C2467.73 2243.93 2481.3 2228.83 2481.72 2214.67C2467.17 2216.24 2450.98 2215.39 2434.83 2209.21Z" fill="url(#paint63_linear_231_10)"/>
</g>
<path d="M2108.66 2118.28C2129.61 2101.75 2151.7 2120.19 2177.48 2102.02C2203.61 2083.61 2196.02 2054.08 2216.27 2045.71C2239.81 2035.98 2274.67 2065.67 2291.35 2084.5C2333.72 2132.35 2353.62 2217.29 2320.13 2247.17C2307.56 2258.38 2271.97 2253.76 2201.29 2244.06C2120.51 2232.97 2108.89 2225.03 2101.16 2214.63C2080.32 2186.62 2084.95 2137 2108.66 2118.28Z" fill="url(#paint64_linear_231_10)"/>
<g opacity="0.3">
<path d="M2241.3 2154.16C2229.66 2150.48 2224.35 2163.81 2200.42 2169.17C2196.03 2170.15 2153.83 2178.97 2131.19 2152.49C2122.2 2141.98 2117.98 2127.85 2118.47 2112.86C2115.17 2114.01 2111.9 2115.73 2108.66 2118.28C2084.95 2137 2080.32 2186.62 2101.16 2214.63C2108.89 2225.03 2120.51 2232.97 2201.29 2244.06C2271.97 2253.76 2307.56 2258.38 2320.13 2247.17C2321.82 2245.66 2323.34 2243.97 2324.76 2242.2C2307.8 2241.64 2290.01 2237.54 2277.17 2225.06C2252.39 2200.99 2261.09 2160.4 2241.3 2154.16Z" fill="url(#paint65_linear_231_10)"/>
</g>
<path d="M2246.32 2250.04L2138.9 2254.1L2035.49 2249.2L2068.93 2248.58L2215.3 2245.98L2246.32 2250.04Z" fill="url(#paint66_linear_231_10)"/>
<defs>
<linearGradient id="paint0_linear_231_10" x1="1919.58" y1="540.672" x2="2440.37" y2="2197.73" gradientUnits="userSpaceOnUse">
<stop stop-color="#FF9085"/>
<stop offset="1" stop-color="#FB6FBB"/>
</linearGradient>
<linearGradient id="paint1_linear_231_10" x1="2860.68" y1="776.415" x2="3546.51" y2="-465.985" gradientUnits="userSpaceOnUse">
<stop offset="0.0036" stop-color="#F36F56"/>
<stop offset="1" stop-color="#9571F6"/>
</linearGradient>
<linearGradient id="paint2_linear_231_10" x1="4801.57" y1="11105.4" x2="5990.88" y2="13688.2" gradientUnits="userSpaceOnUse">
<stop offset="0.0036" stop-color="#FFA620"/>
<stop offset="1" stop-color="#9571F6"/>
</linearGradient>
<linearGradient id="paint3_linear_231_10" x1="169.302" y1="1882.07" x2="1327.37" y2="2975.58" gradientUnits="userSpaceOnUse">
<stop stop-color="#FF9085"/>
<stop offset="1" stop-color="#FB6FBB"/>
</linearGradient>
<linearGradient id="paint4_linear_231_10" x1="475.88" y1="599.08" x2="1210.7" y2="567.131" gradientUnits="userSpaceOnUse">
<stop stop-color="#AB316D"/>
<stop offset="1" stop-color="#792D3D"/>
</linearGradient>
<linearGradient id="paint5_linear_231_10" x1="399.07" y1="1795.72" x2="1086.33" y2="1795.72" gradientUnits="userSpaceOnUse">
<stop stop-color="#FFC444"/>
<stop offset="0.9964" stop-color="#F36F56"/>
</linearGradient>
<linearGradient id="paint6_linear_231_10" x1="584.612" y1="1795.72" x2="1086.33" y2="1795.72" gradientUnits="userSpaceOnUse">
<stop stop-color="#FFC444"/>
<stop offset="0.9964" stop-color="#F36F56"/>
</linearGradient>
<linearGradient id="paint7_linear_231_10" x1="1426.72" y1="1679.52" x2="2626.88" y2="3701.61" gradientUnits="userSpaceOnUse">
<stop stop-color="#FFC444"/>
<stop offset="0.9964" stop-color="#F36F56"/>
</linearGradient>
<linearGradient id="paint8_linear_231_10" x1="1423.22" y1="1500.06" x2="2394.81" y2="3781.84" gradientUnits="userSpaceOnUse">
<stop stop-color="#FFC444"/>
<stop offset="0.9964" stop-color="#F36F56"/>
</linearGradient>
<linearGradient id="paint9_linear_231_10" x1="1602.46" y1="-66.8969" x2="1282.99" y2="2660.04" gradientUnits="userSpaceOnUse">
<stop stop-color="#AB316D"/>
<stop offset="1" stop-color="#792D3D"/>
</linearGradient>
<linearGradient id="paint10_linear_231_10" x1="1770.62" y1="-173.628" x2="846.274" y2="1584.88" gradientUnits="userSpaceOnUse">
<stop stop-color="#AB316D"/>
<stop offset="1" stop-color="#792D3D"/>
</linearGradient>
<linearGradient id="paint11_linear_231_10" x1="2353.06" y1="155.776" x2="1428.72" y2="1914.28" gradientUnits="userSpaceOnUse">
<stop stop-color="#AB316D"/>
<stop offset="1" stop-color="#792D3D"/>
</linearGradient>
<linearGradient id="paint12_linear_231_10" x1="93.455" y1="2255.03" x2="304.126" y2="2288.89" gradientUnits="userSpaceOnUse">
<stop stop-color="#AA80F9"/>
<stop offset="0.9964" stop-color="#6165D7"/>
</linearGradient>
<linearGradient id="paint13_linear_231_10" x1="881.711" y1="2249.69" x2="1754.49" y2="3291.76" gradientUnits="userSpaceOnUse">
<stop stop-color="#FFA620"/>
<stop offset="0.9964" stop-color="#F36F56"/>
</linearGradient>
<linearGradient id="paint14_linear_231_10" x1="659.541" y1="2540.13" x2="1803.19" y2="2901.28" gradientUnits="userSpaceOnUse">
<stop stop-color="#444B8C"/>
<stop offset="0.9964" stop-color="#26264F"/>
</linearGradient>
<linearGradient id="paint15_linear_231_10" x1="456.516" y1="2280.8" x2="1035.76" y2="2289.54" gradientUnits="userSpaceOnUse">
<stop stop-color="#FF9085"/>
<stop offset="1" stop-color="#FB6FBB"/>
</linearGradient>
<linearGradient id="paint16_linear_231_10" x1="851.435" y1="1743.37" x2="1724.22" y2="2785.44" gradientUnits="userSpaceOnUse">
<stop stop-color="#F36F56"/>
<stop offset="0.9964" stop-color="#F57E53"/>
</linearGradient>
<linearGradient id="paint17_linear_231_10" x1="1110.64" y1="2563.19" x2="1679.65" y2="2563.19" gradientUnits="userSpaceOnUse">
<stop stop-color="#AA80F9"/>
<stop offset="0.9964" stop-color="#6165D7"/>
</linearGradient>
<linearGradient id="paint18_linear_231_10" x1="253.862" y1="2863.55" x2="823.464" y2="2863.55" gradientUnits="userSpaceOnUse">
<stop stop-color="#FCB148"/>
<stop offset="0.0521" stop-color="#FDBA46"/>
<stop offset="0.1424" stop-color="#FFC244"/>
<stop offset="0.3183" stop-color="#FFC444"/>
<stop offset="0.4849" stop-color="#FDB946"/>
<stop offset="0.7754" stop-color="#F99C4D"/>
<stop offset="0.8658" stop-color="#F8924F"/>
<stop offset="1" stop-color="#F8924F"/>
</linearGradient>
<linearGradient id="paint19_linear_231_10" x1="541.28" y1="2799.38" x2="571.309" y2="3050.77" gradientUnits="userSpaceOnUse">
<stop stop-color="#FFDB44"/>
<stop offset="1" stop-color="#FEEF06"/>
</linearGradient>
<linearGradient id="paint20_linear_231_10" x1="539.975" y1="2788.17" x2="549.197" y2="2865.38" gradientUnits="userSpaceOnUse">
<stop stop-color="#FFDB44"/>
<stop offset="1" stop-color="#FEEF06"/>
</linearGradient>
<linearGradient id="paint21_linear_231_10" x1="548.644" y1="2857.28" x2="539.455" y2="2780.35" gradientUnits="userSpaceOnUse">
<stop offset="0.0036" stop-color="#F36F56"/>
<stop offset="0.3059" stop-color="#F99C4C"/>
<stop offset="0.545" stop-color="#FDB946"/>
<stop offset="0.6817" stop-color="#FFC444"/>
<stop offset="0.8038" stop-color="#FFC244"/>
<stop offset="0.8667" stop-color="#FEBA46"/>
<stop offset="0.916" stop-color="#FCAD49"/>
<stop offset="0.958" stop-color="#F99A4D"/>
<stop offset="0.9955" stop-color="#F58152"/>
<stop offset="1" stop-color="#F57E53"/>
</linearGradient>
<linearGradient id="paint22_linear_231_10" x1="185.042" y1="2805.87" x2="754.644" y2="2805.87" gradientUnits="userSpaceOnUse">
<stop stop-color="#FCB148"/>
<stop offset="0.0521" stop-color="#FDBA46"/>
<stop offset="0.1424" stop-color="#FFC244"/>
<stop offset="0.3183" stop-color="#FFC444"/>
<stop offset="0.4849" stop-color="#FDB946"/>
<stop offset="0.7754" stop-color="#F99C4D"/>
<stop offset="0.8658" stop-color="#F8924F"/>
<stop offset="1" stop-color="#F8924F"/>
</linearGradient>
<linearGradient id="paint23_linear_231_10" x1="472.461" y1="2741.71" x2="502.489" y2="2993.09" gradientUnits="userSpaceOnUse">
<stop stop-color="#FFDB44"/>
<stop offset="1" stop-color="#FEEF06"/>
</linearGradient>
<linearGradient id="paint24_linear_231_10" x1="471.155" y1="2730.5" x2="480.377" y2="2807.7" gradientUnits="userSpaceOnUse">
<stop stop-color="#FFDB44"/>
<stop offset="1" stop-color="#FEEF06"/>
</linearGradient>
<linearGradient id="paint25_linear_231_10" x1="479.824" y1="2799.61" x2="470.635" y2="2722.68" gradientUnits="userSpaceOnUse">
<stop offset="0.0036" stop-color="#F36F56"/>
<stop offset="0.3059" stop-color="#F99C4C"/>
<stop offset="0.545" stop-color="#FDB946"/>
<stop offset="0.6817" stop-color="#FFC444"/>
<stop offset="0.8038" stop-color="#FFC244"/>
<stop offset="0.8667" stop-color="#FEBA46"/>
<stop offset="0.916" stop-color="#FCAD49"/>
<stop offset="0.958" stop-color="#F99A4D"/>
<stop offset="0.9955" stop-color="#F58152"/>
<stop offset="1" stop-color="#F57E53"/>
</linearGradient>
<linearGradient id="paint26_linear_231_10" x1="244.424" y1="2748.36" x2="814.026" y2="2748.36" gradientUnits="userSpaceOnUse">
<stop stop-color="#FCB148"/>
<stop offset="0.0521" stop-color="#FDBA46"/>
<stop offset="0.1424" stop-color="#FFC244"/>
<stop offset="0.3183" stop-color="#FFC444"/>
<stop offset="0.4849" stop-color="#FDB946"/>
<stop offset="0.7754" stop-color="#F99C4D"/>
<stop offset="0.8658" stop-color="#F8924F"/>
<stop offset="1" stop-color="#F8924F"/>
</linearGradient>
<linearGradient id="paint27_linear_231_10" x1="531.843" y1="2684.2" x2="561.871" y2="2935.59" gradientUnits="userSpaceOnUse">
<stop stop-color="#FFDB44"/>
<stop offset="1" stop-color="#FEEF06"/>
</linearGradient>
<linearGradient id="paint28_linear_231_10" x1="530.537" y1="2672.99" x2="539.759" y2="2750.19" gradientUnits="userSpaceOnUse">
<stop stop-color="#FFDB44"/>
<stop offset="1" stop-color="#FEEF06"/>
</linearGradient>
<linearGradient id="paint29_linear_231_10" x1="539.206" y1="2742.1" x2="530.017" y2="2665.17" gradientUnits="userSpaceOnUse">
<stop offset="0.0036" stop-color="#F36F56"/>
<stop offset="0.3059" stop-color="#F99C4C"/>
<stop offset="0.545" stop-color="#FDB946"/>
<stop offset="0.6817" stop-color="#FFC444"/>
<stop offset="0.8038" stop-color="#FFC244"/>
<stop offset="0.8667" stop-color="#FEBA46"/>
<stop offset="0.916" stop-color="#FCAD49"/>
<stop offset="0.958" stop-color="#F99A4D"/>
<stop offset="0.9955" stop-color="#F58152"/>
<stop offset="1" stop-color="#F57E53"/>
</linearGradient>
<linearGradient id="paint30_linear_231_10" x1="280.459" y1="2690.69" x2="850.061" y2="2690.69" gradientUnits="userSpaceOnUse">
<stop stop-color="#FCB148"/>
<stop offset="0.0521" stop-color="#FDBA46"/>
<stop offset="0.1424" stop-color="#FFC244"/>
<stop offset="0.3183" stop-color="#FFC444"/>
<stop offset="0.4849" stop-color="#FDB946"/>
<stop offset="0.7754" stop-color="#F99C4D"/>
<stop offset="0.8658" stop-color="#F8924F"/>
<stop offset="1" stop-color="#F8924F"/>
</linearGradient>
<linearGradient id="paint31_linear_231_10" x1="567.878" y1="2626.53" x2="597.907" y2="2877.91" gradientUnits="userSpaceOnUse">
<stop stop-color="#FFDB44"/>
<stop offset="1" stop-color="#FEEF06"/>
</linearGradient>
<linearGradient id="paint32_linear_231_10" x1="566.572" y1="2615.31" x2="575.794" y2="2692.52" gradientUnits="userSpaceOnUse">
<stop stop-color="#FFDB44"/>
<stop offset="1" stop-color="#FEEF06"/>
</linearGradient>
<linearGradient id="paint33_linear_231_10" x1="575.241" y1="2684.42" x2="566.052" y2="2607.49" gradientUnits="userSpaceOnUse">
<stop offset="0.0036" stop-color="#F36F56"/>
<stop offset="0.3059" stop-color="#F99C4C"/>
<stop offset="0.545" stop-color="#FDB946"/>
<stop offset="0.6817" stop-color="#FFC444"/>
<stop offset="0.8038" stop-color="#FFC244"/>
<stop offset="0.8667" stop-color="#FEBA46"/>
<stop offset="0.916" stop-color="#FCAD49"/>
<stop offset="0.958" stop-color="#F99A4D"/>
<stop offset="0.9955" stop-color="#F58152"/>
<stop offset="1" stop-color="#F57E53"/>
</linearGradient>
<linearGradient id="paint34_linear_231_10" x1="253.862" y1="2628.46" x2="823.464" y2="2628.46" gradientUnits="userSpaceOnUse">
<stop stop-color="#FCB148"/>
<stop offset="0.0521" stop-color="#FDBA46"/>
<stop offset="0.1424" stop-color="#FFC244"/>
<stop offset="0.3183" stop-color="#FFC444"/>
<stop offset="0.4849" stop-color="#FDB946"/>
<stop offset="0.7754" stop-color="#F99C4D"/>
<stop offset="0.8658" stop-color="#F8924F"/>
<stop offset="1" stop-color="#F8924F"/>
</linearGradient>
<linearGradient id="paint35_linear_231_10" x1="541.28" y1="2564.3" x2="571.309" y2="2815.68" gradientUnits="userSpaceOnUse">
<stop stop-color="#FFDB44"/>
<stop offset="1" stop-color="#FEEF06"/>
</linearGradient>
<linearGradient id="paint36_linear_231_10" x1="539.975" y1="2553.09" x2="549.197" y2="2630.29" gradientUnits="userSpaceOnUse">
<stop stop-color="#FFDB44"/>
<stop offset="1" stop-color="#FEEF06"/>
</linearGradient>
<linearGradient id="paint37_linear_231_10" x1="548.644" y1="2622.2" x2="539.455" y2="2545.27" gradientUnits="userSpaceOnUse">
<stop offset="0.0036" stop-color="#F36F56"/>
<stop offset="0.3059" stop-color="#F99C4C"/>
<stop offset="0.545" stop-color="#FDB946"/>
<stop offset="0.6817" stop-color="#FFC444"/>
<stop offset="0.8038" stop-color="#FFC244"/>
<stop offset="0.8667" stop-color="#FEBA46"/>
<stop offset="0.916" stop-color="#FCAD49"/>
<stop offset="0.958" stop-color="#F99A4D"/>
<stop offset="0.9955" stop-color="#F58152"/>
<stop offset="1" stop-color="#F57E53"/>
</linearGradient>
<linearGradient id="paint38_linear_231_10" x1="185.042" y1="2570.79" x2="754.644" y2="2570.79" gradientUnits="userSpaceOnUse">
<stop stop-color="#FCB148"/>
<stop offset="0.0521" stop-color="#FDBA46"/>
<stop offset="0.1424" stop-color="#FFC244"/>
<stop offset="0.3183" stop-color="#FFC444"/>
<stop offset="0.4849" stop-color="#FDB946"/>
<stop offset="0.7754" stop-color="#F99C4D"/>
<stop offset="0.8658" stop-color="#F8924F"/>
<stop offset="1" stop-color="#F8924F"/>
</linearGradient>
<linearGradient id="paint39_linear_231_10" x1="472.461" y1="2506.62" x2="502.489" y2="2758.01" gradientUnits="userSpaceOnUse">
<stop stop-color="#FFDB44"/>
<stop offset="1" stop-color="#FEEF06"/>
</linearGradient>
<linearGradient id="paint40_linear_231_10" x1="471.155" y1="2495.41" x2="480.377" y2="2572.62" gradientUnits="userSpaceOnUse">
<stop stop-color="#FFDB44"/>
<stop offset="1" stop-color="#FEEF06"/>
</linearGradient>
<linearGradient id="paint41_linear_231_10" x1="479.824" y1="2564.52" x2="470.635" y2="2487.59" gradientUnits="userSpaceOnUse">
<stop offset="0.0036" stop-color="#F36F56"/>
<stop offset="0.3059" stop-color="#F99C4C"/>
<stop offset="0.545" stop-color="#FDB946"/>
<stop offset="0.6817" stop-color="#FFC444"/>
<stop offset="0.8038" stop-color="#FFC244"/>
<stop offset="0.8667" stop-color="#FEBA46"/>
<stop offset="0.916" stop-color="#FCAD49"/>
<stop offset="0.958" stop-color="#F99A4D"/>
<stop offset="0.9955" stop-color="#F58152"/>
<stop offset="1" stop-color="#F57E53"/>
</linearGradient>
<linearGradient id="paint42_linear_231_10" x1="244.424" y1="2513.28" x2="814.026" y2="2513.28" gradientUnits="userSpaceOnUse">
<stop stop-color="#FCB148"/>
<stop offset="0.0521" stop-color="#FDBA46"/>
<stop offset="0.1424" stop-color="#FFC244"/>
<stop offset="0.3183" stop-color="#FFC444"/>
<stop offset="0.4849" stop-color="#FDB946"/>
<stop offset="0.7754" stop-color="#F99C4D"/>
<stop offset="0.8658" stop-color="#F8924F"/>
<stop offset="1" stop-color="#F8924F"/>
</linearGradient>
<linearGradient id="paint43_linear_231_10" x1="531.843" y1="2449.12" x2="561.871" y2="2700.5" gradientUnits="userSpaceOnUse">
<stop stop-color="#FFDB44"/>
<stop offset="1" stop-color="#FEEF06"/>
</linearGradient>
<linearGradient id="paint44_linear_231_10" x1="530.537" y1="2437.91" x2="539.76" y2="2515.11" gradientUnits="userSpaceOnUse">
<stop stop-color="#FFDB44"/>
<stop offset="1" stop-color="#FEEF06"/>
</linearGradient>
<linearGradient id="paint45_linear_231_10" x1="539.206" y1="2507.02" x2="530.017" y2="2430.09" gradientUnits="userSpaceOnUse">
<stop offset="0.0036" stop-color="#F36F56"/>
<stop offset="0.3059" stop-color="#F99C4C"/>
<stop offset="0.545" stop-color="#FDB946"/>
<stop offset="0.6817" stop-color="#FFC444"/>
<stop offset="0.8038" stop-color="#FFC244"/>
<stop offset="0.8667" stop-color="#FEBA46"/>
<stop offset="0.916" stop-color="#FCAD49"/>
<stop offset="0.958" stop-color="#F99A4D"/>
<stop offset="0.9955" stop-color="#F58152"/>
<stop offset="1" stop-color="#F57E53"/>
</linearGradient>
<linearGradient id="paint46_linear_231_10" x1="213.538" y1="2455.6" x2="783.139" y2="2455.6" gradientUnits="userSpaceOnUse">
<stop stop-color="#FCB148"/>
<stop offset="0.0521" stop-color="#FDBA46"/>
<stop offset="0.1424" stop-color="#FFC244"/>
<stop offset="0.3183" stop-color="#FFC444"/>
<stop offset="0.4849" stop-color="#FDB946"/>
<stop offset="0.7754" stop-color="#F99C4D"/>
<stop offset="0.8658" stop-color="#F8924F"/>
<stop offset="1" stop-color="#F8924F"/>
</linearGradient>
<linearGradient id="paint47_linear_231_10" x1="500.956" y1="2391.44" x2="530.985" y2="2642.83" gradientUnits="userSpaceOnUse">
<stop stop-color="#FFDB44"/>
<stop offset="1" stop-color="#FEEF06"/>
</linearGradient>
<linearGradient id="paint48_linear_231_10" x1="499.65" y1="2380.23" x2="508.873" y2="2457.43" gradientUnits="userSpaceOnUse">
<stop stop-color="#FFDB44"/>
<stop offset="1" stop-color="#FEEF06"/>
</linearGradient>
<linearGradient id="paint49_linear_231_10" x1="508.32" y1="2449.34" x2="499.13" y2="2372.41" gradientUnits="userSpaceOnUse">
<stop offset="0.0036" stop-color="#F36F56"/>
<stop offset="0.3059" stop-color="#F99C4C"/>
<stop offset="0.545" stop-color="#FDB946"/>
<stop offset="0.6817" stop-color="#FFC444"/>
<stop offset="0.8038" stop-color="#FFC244"/>
<stop offset="0.8667" stop-color="#FEBA46"/>
<stop offset="0.916" stop-color="#FCAD49"/>
<stop offset="0.958" stop-color="#F99A4D"/>
<stop offset="0.9955" stop-color="#F58152"/>
<stop offset="1" stop-color="#F57E53"/>
</linearGradient>
<linearGradient id="paint50_linear_231_10" x1="761.413" y1="2441.52" x2="1091.56" y2="2905.69" gradientUnits="userSpaceOnUse">
<stop stop-color="#FCB148"/>
<stop offset="0.0521" stop-color="#FDBA46"/>
<stop offset="0.1424" stop-color="#FFC244"/>
<stop offset="0.3183" stop-color="#FFC444"/>
<stop offset="0.4849" stop-color="#FDB946"/>
<stop offset="0.7754" stop-color="#F99C4D"/>
<stop offset="0.8658" stop-color="#F8924F"/>
<stop offset="1" stop-color="#F8924F"/>
</linearGradient>
<linearGradient id="paint51_linear_231_10" x1="980.283" y1="2638.55" x2="792.856" y2="2808.71" gradientUnits="userSpaceOnUse">
<stop stop-color="#FFDB44"/>
<stop offset="1" stop-color="#FEEF06"/>
</linearGradient>
<linearGradient id="paint52_linear_231_10" x1="988.657" y1="2630.99" x2="931.098" y2="2683.25" gradientUnits="userSpaceOnUse">
<stop stop-color="#FFDB44"/>
<stop offset="1" stop-color="#FEEF06"/>
</linearGradient>
<linearGradient id="paint53_linear_231_10" x1="937.376" y1="2678.1" x2="994.73" y2="2626.04" gradientUnits="userSpaceOnUse">
<stop offset="0.0036" stop-color="#F36F56"/>
<stop offset="0.3059" stop-color="#F99C4C"/>
<stop offset="0.545" stop-color="#FDB946"/>
<stop offset="0.6817" stop-color="#FFC444"/>
<stop offset="0.8038" stop-color="#FFC244"/>
<stop offset="0.8667" stop-color="#FEBA46"/>
<stop offset="0.916" stop-color="#FCAD49"/>
<stop offset="0.958" stop-color="#F99A4D"/>
<stop offset="0.9955" stop-color="#F58152"/>
<stop offset="1" stop-color="#F57E53"/>
</linearGradient>
<linearGradient id="paint54_linear_231_10" x1="1837.29" y1="2066.6" x2="2063.46" y2="2408.42" gradientUnits="userSpaceOnUse">
<stop stop-color="#F36F56"/>
<stop offset="0.9964" stop-color="#F8924F"/>
</linearGradient>
<linearGradient id="paint55_linear_231_10" x1="2541.22" y1="2270.19" x2="2210.26" y2="2829.14" gradientUnits="userSpaceOnUse">
<stop stop-color="#F36F56"/>
<stop offset="0.9964" stop-color="#FFA620"/>
</linearGradient>
<linearGradient id="paint56_linear_231_10" x1="2299.95" y1="2094.11" x2="2247.51" y2="2278.87" gradientUnits="userSpaceOnUse">
<stop offset="0.0036" stop-color="#E38DDD"/>
<stop offset="1" stop-color="#9571F6"/>
</linearGradient>
<linearGradient id="paint57_linear_231_10" x1="2564.42" y1="2284.42" x2="2230.5" y2="2848.38" gradientUnits="userSpaceOnUse">
<stop offset="0.0036" stop-color="#E38DDD"/>
<stop offset="1" stop-color="#9571F6"/>
</linearGradient>
<linearGradient id="paint58_linear_231_10" x1="2355.17" y1="2287.73" x2="2489.55" y2="2964.7" gradientUnits="userSpaceOnUse">
<stop stop-color="#AB316D"/>
<stop offset="1" stop-color="#792D3D"/>
</linearGradient>
<linearGradient id="paint59_linear_231_10" x1="2375.54" y1="2498.36" x2="2613.57" y2="2463.16" gradientUnits="userSpaceOnUse">
<stop stop-color="#AB316D"/>
<stop offset="1" stop-color="#792D3D"/>
</linearGradient>
<linearGradient id="paint60_linear_231_10" x1="2065.86" y1="2493.15" x2="2293.05" y2="2459.55" gradientUnits="userSpaceOnUse">
<stop stop-color="#AB316D"/>
<stop offset="1" stop-color="#792D3D"/>
</linearGradient>
<linearGradient id="paint61_linear_231_10" x1="2215.56" y1="2257.85" x2="2720.57" y2="2183.17" gradientUnits="userSpaceOnUse">
<stop stop-color="#AB316D"/>
<stop offset="1" stop-color="#792D3D"/>
</linearGradient>
<linearGradient id="paint62_linear_231_10" x1="2471.54" y1="2109.62" x2="2346.41" y2="2239.76" gradientUnits="userSpaceOnUse">
<stop stop-color="#AB316D"/>
<stop offset="1" stop-color="#792D3D"/>
</linearGradient>
<linearGradient id="paint63_linear_231_10" x1="2491.69" y1="2129" x2="2366.56" y2="2259.13" gradientUnits="userSpaceOnUse">
<stop stop-color="#AB316D"/>
<stop offset="1" stop-color="#792D3D"/>
</linearGradient>
<linearGradient id="paint64_linear_231_10" x1="2175.88" y1="2161.5" x2="2508.19" y2="2112.35" gradientUnits="userSpaceOnUse">
<stop stop-color="#AB316D"/>
<stop offset="1" stop-color="#792D3D"/>
</linearGradient>
<linearGradient id="paint65_linear_231_10" x1="2179.74" y1="2187.64" x2="2512.06" y2="2138.5" gradientUnits="userSpaceOnUse">
<stop stop-color="#AB316D"/>
<stop offset="1" stop-color="#792D3D"/>
</linearGradient>
<linearGradient id="paint66_linear_231_10" x1="2113.12" y1="2253.73" x2="2396.46" y2="2211.82" gradientUnits="userSpaceOnUse">
<stop stop-color="#AB316D"/>
<stop offset="1" stop-color="#792D3D"/>
</linearGradient>
</defs>
</svg>
