<svg width="250" height="250" viewBox="0 0 129 145" fill="none" xmlns="http://www.w3.org/2000/svg">
<circle cx="50.5236" cy="50.4416" r="50" transform="rotate(-40 50.5236 50.4416)" fill="#FFA620"/>
<path fill-rule="evenodd" clip-rule="evenodd" d="M80.0822 82.06C61.1873 95.7243 34.9212 92.4716 19.7935 73.9642C5.0784 55.9616 6.0402 29.8107 21.1885 13C20.1496 13.7513 19.1331 14.5537 18.1419 15.4075C-0.87782 31.7908 -3.35866 60.9003 12.6008 80.4252C28.5602 99.9502 56.9164 102.497 75.936 86.1136C77.419 84.8362 78.8013 83.4815 80.0822 82.06Z" fill="#FFC061"/>
<path d="M93.1166 118.007C93.6651 118.071 94.0575 118.568 93.9931 119.117C93.9287 119.665 93.4318 120.058 92.8833 119.993L93.1166 118.007ZM41.877 89.4547C46.2012 97.3498 62.5895 114.422 93.1166 118.007L92.8833 119.993C61.7125 116.333 44.7579 98.878 40.1229 90.4154L41.877 89.4547Z" fill="black" fill-opacity="0.6"/>
<path d="M30.082 24C35.0654 33.2142 51.242 46.626 76.082 26.5595" stroke="black" stroke-opacity="0.6" stroke-width="2" stroke-linecap="round"/>
<path d="M55.082 19C57.3897 21.1645 62.6205 24.2813 65.082 19.4329" stroke="black" stroke-opacity="0.6" stroke-width="2" stroke-linecap="round"/>
<path d="M49.082 19C47.0051 21.1645 42.2974 24.2813 40.082 19.4329" stroke="black" stroke-opacity="0.6" stroke-width="2" stroke-linecap="round"/>
<path d="M121.018 113C121.57 112.99 122.01 112.534 122 111.982C121.99 111.43 121.534 110.99 120.982 111L121.018 113ZM88.0053 69.1029C88.7648 76.4451 91.2926 87.4379 96.4412 96.5783C101.589 105.717 109.49 113.209 121.018 113L120.982 111C110.51 111.191 103.161 104.433 98.1838 95.5967C93.2074 86.7621 90.7352 76.0549 89.9947 68.8971L88.0053 69.1029Z" fill="black" fill-opacity="0.6"/>
<path d="M84.4309 102.956C80.3515 98.4645 72.2805 99.3404 66.0695 104.981C59.8586 110.623 58.2125 118.572 62.2919 123.064C66.3712 127.555 74.4423 126.679 80.6532 121.038C86.8641 115.397 88.5102 107.447 84.4309 102.956ZM81.2753 105.822C83.213 107.955 82.0989 113.27 77.4407 117.501C72.7825 121.732 67.3851 122.331 65.4474 120.198C63.5097 118.064 64.6238 112.749 69.282 108.518C73.9402 104.288 79.3376 103.689 81.2753 105.822Z" fill="#FFA620"/>
<path d="M84.0343 109.464C84.028 108.752 108.535 105.14 108.535 105.14L124.166 102.624L123.695 106.433C123.552 107.382 122.902 108.177 121.944 108.33L84.3317 114.521L84.0343 109.464Z" fill="#FFA620"/>
<path d="M119.988 98.4268L118.683 105.042L123.796 106.443L125.35 99.4994C123.871 97.8712 121.391 97.2546 119.988 98.4268Z" fill="#FFA620"/>
<path d="M112.17 99.38C111.109 99.319 110.154 99.7768 109.504 100.571L108.247 106.836L113.36 108.238L115.059 100.649C114.244 99.8524 113.18 99.3849 112.17 99.38Z" fill="#FFA620"/>
</svg>
