<svg width="50" height="50" viewBox="0 0 50 50" fill="none" xmlns="http://www.w3.org/2000/svg">
<circle cx="25" cy="25" r="25" fill="#FFA620"/>
<path d="M45 23C45 28.3043 42.8929 33.3914 39.1421 37.1421C35.3914 40.8929 30.3043 43 25 43C19.6957 43 14.6086 40.8929 10.8579 37.1421C7.10714 33.3914 5 28.3043 5 23L25 23H45Z" fill="#FFF7EB"/>
<mask id="path-3-inside-1_0_1" fill="white">
<path d="M12 25.5C12 22.1848 13.317 19.0054 15.6612 16.6612C18.0054 14.317 21.1848 13 24.5 13C27.8152 13 30.9946 14.317 33.3388 16.6612C35.683 19.0054 37 22.1848 37 25.5L24.5 25.5H12Z"/>
</mask>
<path d="M12 25.5C12 22.1848 13.317 19.0054 15.6612 16.6612C18.0054 14.317 21.1848 13 24.5 13C27.8152 13 30.9946 14.317 33.3388 16.6612C35.683 19.0054 37 22.1848 37 25.5L24.5 25.5H12Z" stroke="#FFF7EB" stroke-width="4" mask="url(#path-3-inside-1_0_1)"/>
</svg>
