<svg width="500" height="500" viewBox="0 0 171 156" fill="none" xmlns="http://www.w3.org/2000/svg">
<path d="M170.296 94.5586C171.404 99.7459 170.406 105.161 167.522 109.613C164.638 114.064 160.103 117.188 154.916 118.296C149.729 119.404 144.314 118.406 139.862 115.522C135.41 112.638 132.287 108.103 131.179 102.916L150.737 98.7373L170.296 94.5586Z" fill="#FFA620"/>
<path fill-rule="evenodd" clip-rule="evenodd" d="M166 104.549C165.076 106.222 163.861 107.731 162.397 108.992C159.243 111.709 155.194 113.051 151.142 112.721C147.089 112.391 143.366 110.417 140.79 107.232C139.986 106.238 139.314 105.152 138.783 104L136 104.542C136.85 108.166 139.246 111.335 142.66 113.35C146.074 115.365 150.227 116.063 154.206 115.288C158.184 114.514 161.662 112.331 163.874 109.221C164.899 107.781 165.613 106.196 166 104.549Z" fill="#FFC061"/>
<circle cx="71.4416" cy="50.4416" r="50" transform="rotate(-40 71.4416 50.4416)" fill="#FFA620"/>
<path d="M157.163 96.4866C157.708 96.3967 158.077 95.882 157.987 95.3371C157.897 94.7922 157.382 94.4234 156.837 94.5134L157.163 96.4866ZM156.837 94.5134C147.825 96.0016 134.263 96.7613 122.853 94.2484C117.149 92.9923 112.062 90.9354 108.344 87.8153C104.657 84.7205 102.284 80.5552 101.999 74.9492L100.001 75.0508C100.316 81.2448 102.972 85.917 107.059 89.3472C111.115 92.7521 116.547 94.9077 122.422 96.2016C134.17 98.7887 148.008 97.9984 157.163 96.4866L156.837 94.5134Z" fill="black" fill-opacity="0.6"/>
<mask id="path-5-inside-1_0_1" fill="white">
<path d="M138.547 103.898C137.854 100.656 138.477 97.2717 140.28 94.4895C142.083 91.7073 144.917 89.7551 148.159 89.0624C151.401 88.3698 154.785 88.9934 157.568 90.7961C160.35 92.5988 162.302 95.4328 162.995 98.6749L150.771 101.287L138.547 103.898Z"/>
</mask>
<path d="M138.547 103.898C137.854 100.656 138.477 97.2717 140.28 94.4895C142.083 91.7073 144.917 89.7551 148.159 89.0624C151.401 88.3698 154.785 88.9934 157.568 90.7961C160.35 92.5988 162.302 95.4328 162.995 98.6749L150.771 101.287L138.547 103.898Z" stroke="#FFA620" stroke-width="4" mask="url(#path-5-inside-1_0_1)"/>
<path fill-rule="evenodd" clip-rule="evenodd" d="M101 82.06C82.1052 95.7244 55.8392 92.4716 40.7115 73.9642C25.9964 55.9616 26.9582 29.8107 42.1064 13C41.0676 13.7513 40.051 14.5537 39.0598 15.4075C20.0401 31.7908 17.5593 60.9003 33.5187 80.4252C49.4781 99.9502 77.8343 102.497 96.854 86.1136C98.3369 84.8362 99.7192 83.4815 101 82.06Z" fill="#FFC061"/>
<path d="M17.4971 109.636C17.0197 109.913 16.8579 110.526 17.1357 111.003C17.4134 111.48 18.0255 111.642 18.5029 111.364L17.4971 109.636ZM45.0003 73.9756C44.8432 80.4158 39.2388 96.9859 17.4971 109.636L18.5029 111.364C40.7612 98.4141 46.8234 81.2509 46.9997 74.0244L45.0003 73.9756Z" fill="black" fill-opacity="0.6"/>
<mask id="path-8-inside-2_0_1" fill="white">
<path d="M13.0612 114.282C13.4957 110.996 15.218 108.016 17.8492 106C20.4804 103.983 23.805 103.094 27.0917 103.528C30.3783 103.963 33.3577 105.685 35.3744 108.316C37.3912 110.948 38.2801 114.272 37.8456 117.559L25.4534 115.921L13.0612 114.282Z"/>
</mask>
<path d="M13.0612 114.282C13.4957 110.996 15.218 108.016 17.8492 106C20.4804 103.983 23.805 103.094 27.0917 103.528C30.3783 103.963 33.3577 105.685 35.3744 108.316C37.3912 110.948 38.2801 114.272 37.8456 117.559L25.4534 115.921L13.0612 114.282Z" stroke="#FFA620" stroke-width="4" mask="url(#path-8-inside-2_0_1)"/>
<path d="M51 24C55.9833 33.2142 72.16 46.626 97 26.5595" stroke="black" stroke-opacity="0.6" stroke-width="2" stroke-linecap="round"/>
<path d="M76 19C78.3077 21.1645 83.5385 24.2813 86 19.4329" stroke="black" stroke-opacity="0.6" stroke-width="2" stroke-linecap="round"/>
<path d="M70 19C67.9231 21.1645 63.2154 24.2813 61 19.4329" stroke="black" stroke-opacity="0.6" stroke-width="2" stroke-linecap="round"/>
<rect x="6.1604" y="110.51" width="40" height="40" transform="rotate(7.53098 6.1604 110.51)" fill="#FFA620"/>
</svg>
